<svg width="19" height="32" viewBox="0 0 19 32" version="1.1" xmlns="http://www.w3.org/2000/svg" xmlns:xlink="http://www.w3.org/1999/xlink">
<title>$</title>
<desc>Created using Figma</desc>
<g id="Canvas" transform="translate(-79 3168)">
<g id="$">
<use xlink:href="#path0_fill" transform="translate(77 -3166)" fill="#E9CB6B"/>
</g>
</g>
<defs>
<path id="path0_fill" d="M 10.512 29.528L 12.816 29.528L 12.816 26C 17.352 25.712 20.484 23.084 20.484 19.232C 20.484 15.524 18.18 13.436 12.708 12.176L 12.708 3.32C 14.616 3.644 16.416 4.436 18.144 5.912L 19.692 3.752C 17.604 2.132 15.516 1.124 12.816 0.872L 12.816 -1.288L 10.512 -1.288L 10.512 0.8C 6.084 1.016 2.952 3.716 2.952 7.424C 2.952 11.24 5.292 13.22 10.62 14.48L 10.62 23.48C 7.92 23.192 5.796 22.004 3.636 20.06L 2.016 22.22C 4.536 24.38 7.308 25.64 10.512 25.928L 10.512 29.528ZM 10.62 11.672C 6.66 10.664 5.724 9.332 5.724 7.316C 5.724 5.048 7.596 3.32 10.62 3.212L 10.62 11.672ZM 12.708 23.588L 12.708 14.984C 16.704 15.956 17.712 17.216 17.712 19.34C 17.712 21.752 15.768 23.444 12.708 23.588Z"/>
</defs>
</svg>
