<svg id="Layer_1" data-name="Layer 1" xmlns="http://www.w3.org/2000/svg" viewBox="0 0 512 512"><title>Artboard 1</title><path d="M499,340a13,13,0,0,0-13,13v49.8a52.2,52.2,0,0,1-52.13,52.14H78.2a52.2,52.2,0,0,1-52.13-52.14V353A13,13,0,0,0,0,353v49.8A78.3,78.3,0,0,0,78.2,481H433.8A78.3,78.3,0,0,0,512,402.78V353A13,13,0,0,0,499,340Z"/><path d="M419.83,391.3H92.17a13,13,0,1,0,0,26.07H419.83a13,13,0,1,0,0-26.07Z"/><path d="M124.08,155.24a13,13,0,0,0,18.4,1L243,66.51V319.12a13,13,0,1,0,26.06,0V66.51l100.49,89.76a13,13,0,1,0,17.36-19.44L277.71,39.31a32.56,32.56,0,0,0-43.42,0L125.12,136.83A13,13,0,0,0,124.08,155.24Z"/></svg>