<svg id="Слой_1" data-name="Слой 1" xmlns="http://www.w3.org/2000/svg" viewBox="0 0 508 161.98"><defs><style>.cls-1,.cls-3{fill:#f4cc64;}.cls-1{stroke:#000;}.cls-1,.cls-2{stroke-miterlimit:10;stroke-width:1.38px;}.cls-2{fill:#161616;stroke:#f4cc64;}.cls-4{fill:none;stroke:#201600;stroke-width:0.81px;}.cls-5{fill:#201600;}</style></defs><title>Монтажная область 15</title><path d="M125,33.8a1.83,1.83,0,0,1-.69,1.51,3,3,0,0,1-1.92.55,4.51,4.51,0,0,1-2-.43V34a8.38,8.38,0,0,0,1.21.45,3.63,3.63,0,0,0,.91.13,1.3,1.3,0,0,0,.76-.19.65.65,0,0,0,.26-.56.62.62,0,0,0-.12-.37,1.31,1.31,0,0,0-.34-.31,8.71,8.71,0,0,0-.92-.48,4.38,4.38,0,0,1-1-.59,2.21,2.21,0,0,1-.52-.65,1.88,1.88,0,0,1-.19-.87,1.83,1.83,0,0,1,.64-1.48,2.65,2.65,0,0,1,1.76-.54,4.15,4.15,0,0,1,1.05.13,7.18,7.18,0,0,1,1,.37l-.48,1.17a7.16,7.16,0,0,0-.94-.32,3,3,0,0,0-.73-.09,1,1,0,0,0-.65.2.65.65,0,0,0-.23.52.64.64,0,0,0,.09.35,1,1,0,0,0,.29.29,8.93,8.93,0,0,0,1,.5,3.77,3.77,0,0,1,1.36,1A1.86,1.86,0,0,1,125,33.8Z"/><path d="M128.44,34.69a3.21,3.21,0,0,0,.93-.17v1.1a3.33,3.33,0,0,1-1.36.25,1.66,1.66,0,0,1-1.29-.45,2,2,0,0,1-.4-1.34V31.46h-.71v-.62l.81-.49.43-1.14h.94v1.15h1.52v1.11H127.8v2.61a.58.58,0,0,0,.18.47A.69.69,0,0,0,128.44,34.69Z"/><path d="M133.9,35.77l-.29-.74h0a2.18,2.18,0,0,1-.77.65,2.49,2.49,0,0,1-1,.18,1.67,1.67,0,0,1-1.23-.45,1.71,1.71,0,0,1-.45-1.27,1.43,1.43,0,0,1,.6-1.27,3.49,3.49,0,0,1,1.82-.45l.94,0v-.24a.74.74,0,0,0-.84-.82,3.84,3.84,0,0,0-1.53.39l-.49-1a4.41,4.41,0,0,1,2.07-.49,2.58,2.58,0,0,1,1.67.48,1.75,1.75,0,0,1,.58,1.44v3.61Zm-.44-2.51-.57,0a1.83,1.83,0,0,0-1,.23.73.73,0,0,0-.32.65q0,.62.72.63a1.14,1.14,0,0,0,.82-.3,1,1,0,0,0,.31-.78Z"/><path d="M141.17,30.35v.75l-.85.22a1.48,1.48,0,0,1,.23.81,1.64,1.64,0,0,1-.61,1.36,2.64,2.64,0,0,1-1.69.49H138l-.22,0a.49.49,0,0,0-.23.39q0,.32.81.32h.92a2.1,2.1,0,0,1,1.36.38,1.37,1.37,0,0,1,.47,1.12,1.67,1.67,0,0,1-.79,1.47,4.13,4.13,0,0,1-2.27.52,3.15,3.15,0,0,1-1.73-.39,1.25,1.25,0,0,1-.6-1.11,1.15,1.15,0,0,1,.31-.82,1.72,1.72,0,0,1,.9-.47,1,1,0,0,1-.4-.32.78.78,0,0,1,0-1,2.06,2.06,0,0,1,.52-.4,1.45,1.45,0,0,1-.68-.59,1.8,1.8,0,0,1-.25-1,1.69,1.69,0,0,1,.58-1.37,2.49,2.49,0,0,1,1.65-.48,4.23,4.23,0,0,1,.54,0l.4.06ZM137,36.54a.54.54,0,0,0,.29.48,1.61,1.61,0,0,0,.82.17,2.91,2.91,0,0,0,1.25-.22.66.66,0,0,0,.45-.6.42.42,0,0,0-.27-.42,2.18,2.18,0,0,0-.82-.12h-.77a1.16,1.16,0,0,0-.68.19A.59.59,0,0,0,137,36.54Zm.54-4.41a1.1,1.1,0,0,0,.2.7.73.73,0,0,0,.61.26.71.71,0,0,0,.61-.26,1.13,1.13,0,0,0,.19-.7q0-1-.8-1T137.53,32.13Z"/><path d="M144.51,35.87a2.79,2.79,0,0,1-2-.72,2.73,2.73,0,0,1-.74-2,3,3,0,0,1,.68-2.1,2.42,2.42,0,0,1,1.88-.74,2.39,2.39,0,0,1,1.79.65,2.47,2.47,0,0,1,.64,1.81v.72h-3.49a1.42,1.42,0,0,0,.37,1,1.31,1.31,0,0,0,1,.35,4.06,4.06,0,0,0,.92-.1,4.66,4.66,0,0,0,.91-.32v1.14a3.5,3.5,0,0,1-.83.29A5.26,5.26,0,0,1,144.51,35.87Zm-.21-4.56a.94.94,0,0,0-.74.3,1.38,1.38,0,0,0-.3.85h2.07a1.24,1.24,0,0,0-.29-.85A1,1,0,0,0,144.3,31.3Z"/><path d="M153.82,35.77h-1.5V31l0-.74q-.37.37-.52.49l-.81.65-.72-.9,2.28-1.82h1.23Z"/><path d="M122.19,134.79h-4.08v-7.08h4.08v1.23h-2.58v1.56H122v1.23h-2.4v1.83h2.58Z"/><path d="M125.83,133.71a3.21,3.21,0,0,0,.93-.17v1.1a3.33,3.33,0,0,1-1.36.25,1.66,1.66,0,0,1-1.29-.45,2,2,0,0,1-.4-1.34v-2.61H123v-.62l.81-.49.43-1.14h.94v1.15h1.52v1.11h-1.52v2.61a.58.58,0,0,0,.18.47A.69.69,0,0,0,125.83,133.71Z"/><path d="M132.85,134.79h-1.48v-3.16q0-1.17-.87-1.17a1,1,0,0,0-.9.42,2.57,2.57,0,0,0-.28,1.37v2.55h-1.48v-7.54h1.48v1.54q0,.18,0,.84l0,.44h.08a1.71,1.71,0,0,1,1.57-.79,1.92,1.92,0,0,1,1.45.51,2,2,0,0,1,.49,1.47Z"/><path d="M136.82,134.89a2.79,2.79,0,0,1-2-.72,2.73,2.73,0,0,1-.74-2,3,3,0,0,1,.68-2.1,2.42,2.42,0,0,1,1.88-.74,2.39,2.39,0,0,1,1.79.65,2.47,2.47,0,0,1,.64,1.81v.72h-3.49a1.42,1.42,0,0,0,.37,1,1.31,1.31,0,0,0,1,.35,4.06,4.06,0,0,0,.92-.1,4.66,4.66,0,0,0,.91-.32v1.14a3.5,3.5,0,0,1-.83.29A5.26,5.26,0,0,1,136.82,134.89Zm-.21-4.56a.94.94,0,0,0-.74.3,1.38,1.38,0,0,0-.3.85h2.07a1.24,1.24,0,0,0-.29-.85A1,1,0,0,0,136.61,130.33Z"/><path d="M143.26,129.28a2.38,2.38,0,0,1,.5,0l-.11,1.39a1.68,1.68,0,0,0-.44,0,1.56,1.56,0,0,0-1.1.36,1.31,1.31,0,0,0-.39,1v2.76h-1.48v-5.42h1.12l.22.91h.07a2,2,0,0,1,.68-.73A1.68,1.68,0,0,1,143.26,129.28Z"/><path d="M147.19,134.89a2.79,2.79,0,0,1-2-.72,2.73,2.73,0,0,1-.74-2,3,3,0,0,1,.68-2.1,2.42,2.42,0,0,1,1.88-.74,2.39,2.39,0,0,1,1.79.65,2.47,2.47,0,0,1,.64,1.81v.72h-3.49a1.42,1.42,0,0,0,.37,1,1.31,1.31,0,0,0,1,.35,4.06,4.06,0,0,0,.92-.1,4.66,4.66,0,0,0,.91-.32v1.14a3.5,3.5,0,0,1-.83.29A5.26,5.26,0,0,1,147.19,134.89Zm-.21-4.56a.94.94,0,0,0-.74.3,1.38,1.38,0,0,0-.3.85H148a1.24,1.24,0,0,0-.29-.85A1,1,0,0,0,147,130.33Z"/><path d="M154.44,134.79l-.2-.69h-.08a1.55,1.55,0,0,1-.67.58,2.3,2.3,0,0,1-1,.21,1.89,1.89,0,0,1-1.44-.51,2.06,2.06,0,0,1-.48-1.47v-3.53H152v3.16a1.52,1.52,0,0,0,.21.88.76.76,0,0,0,.66.29,1,1,0,0,0,.9-.41,2.57,2.57,0,0,0,.28-1.37v-2.55h1.48v5.42Z"/><path d="M162,134.79h-1.48v-3.16a1.59,1.59,0,0,0-.2-.88.69.69,0,0,0-.62-.29.89.89,0,0,0-.82.42,2.74,2.74,0,0,0-.26,1.37v2.55h-1.48v-5.42h1.13l.2.69h.08a1.5,1.5,0,0,1,.63-.58,2,2,0,0,1,.94-.21,1.7,1.7,0,0,1,1.65.79h.13a1.47,1.47,0,0,1,.64-.59,2.14,2.14,0,0,1,1-.21,1.89,1.89,0,0,1,1.39.47,2.07,2.07,0,0,1,.47,1.51v3.53h-1.48v-3.16a1.59,1.59,0,0,0-.2-.88.69.69,0,0,0-.62-.29.92.92,0,0,0-.81.39,2.19,2.19,0,0,0-.27,1.23Z"/><path d="M174.44,129.92a2.16,2.16,0,0,1-.71,1.75,3.05,3.05,0,0,1-2,.61h-.64v2.52h-1.5v-7.08h2.26a3,3,0,0,1,2,.55A2,2,0,0,1,174.44,129.92ZM171.05,131h.49a1.65,1.65,0,0,0,1-.27,1,1,0,0,0,.34-.8,1,1,0,0,0-.29-.78,1.35,1.35,0,0,0-.9-.25h-.68Z"/><path d="M180.59,132.07a2.91,2.91,0,0,1-.7,2.07,2.53,2.53,0,0,1-1.94.75,2.72,2.72,0,0,1-1.38-.34,2.27,2.27,0,0,1-.92-1,3.29,3.29,0,0,1-.32-1.49A2.89,2.89,0,0,1,176,130a2.54,2.54,0,0,1,1.95-.74,2.74,2.74,0,0,1,1.38.34,2.27,2.27,0,0,1,.92,1A3.26,3.26,0,0,1,180.59,132.07Zm-3.74,0a2.27,2.27,0,0,0,.26,1.22.94.94,0,0,0,.86.41.93.93,0,0,0,.85-.41,2.31,2.31,0,0,0,.26-1.22,2.24,2.24,0,0,0-.26-1.21,1.11,1.11,0,0,0-1.71,0A2.23,2.23,0,0,0,176.84,132.07Z"/><path d="M186.73,132.07a2.91,2.91,0,0,1-.7,2.07,2.53,2.53,0,0,1-1.94.75,2.72,2.72,0,0,1-1.38-.34,2.27,2.27,0,0,1-.92-1,3.29,3.29,0,0,1-.32-1.49,2.89,2.89,0,0,1,.69-2.06,2.54,2.54,0,0,1,1.95-.74,2.74,2.74,0,0,1,1.38.34,2.27,2.27,0,0,1,.92,1A3.26,3.26,0,0,1,186.73,132.07Zm-3.74,0a2.27,2.27,0,0,0,.26,1.22.94.94,0,0,0,.86.41.93.93,0,0,0,.85-.41,2.31,2.31,0,0,0,.26-1.22,2.24,2.24,0,0,0-.26-1.21,1.11,1.11,0,0,0-1.71,0A2.23,2.23,0,0,0,183,132.07Z"/><path d="M189.43,134.79h-1.48v-7.54h1.48Z"/><path d="M340.85,141.38l-1.71-5.56h0q.09,1.69.09,2.26v3.29h-1.34V134.3h2l1.68,5.42h0l1.78-5.42h2v7.08H344V138q0-.24,0-.55t.07-1.65h0l-1.83,5.55Z"/><path d="M347.21,141.38V134.3h1.5v7.08Z"/><path d="M356.77,141.38h-1.91L351.78,136h0q.09,1.42.09,2v3.33h-1.34V134.3h1.89l3.08,5.3h0q-.07-1.38-.07-2V134.3h1.35Z"/><path d="M361.29,141.38h-1.5v-5.83h-1.92V134.3h5.35v1.25h-1.92Z"/><path d="M366.88,134.3h2.2a4.24,4.24,0,0,1,2.19.43,1.49,1.49,0,0,1,.68,1.36,1.71,1.71,0,0,1-.3,1,1.19,1.19,0,0,1-.79.49v0a1.56,1.56,0,0,1,1,.56,1.83,1.83,0,0,1,.3,1.09,1.8,1.8,0,0,1-.7,1.51,3,3,0,0,1-1.9.54h-2.65Zm1.5,2.81h.87a1.59,1.59,0,0,0,.88-.19.7.7,0,0,0,.27-.62.63.63,0,0,0-.3-.58,1.91,1.91,0,0,0-.94-.18h-.79Zm0,1.19v1.85h1a1.45,1.45,0,0,0,.92-.24.88.88,0,0,0,.3-.73q0-.88-1.26-.88Z"/><path d="M374.9,141.38h-1.48v-7.54h1.48Z"/><path d="M381.37,138.66a2.91,2.91,0,0,1-.7,2.07,2.53,2.53,0,0,1-1.94.75,2.72,2.72,0,0,1-1.38-.34,2.27,2.27,0,0,1-.92-1,3.29,3.29,0,0,1-.32-1.49,2.89,2.89,0,0,1,.69-2.06,2.54,2.54,0,0,1,1.95-.74,2.74,2.74,0,0,1,1.38.34,2.27,2.27,0,0,1,.92,1A3.26,3.26,0,0,1,381.37,138.66Zm-3.74,0a2.27,2.27,0,0,0,.26,1.22.94.94,0,0,0,.86.41.93.93,0,0,0,.85-.41,2.31,2.31,0,0,0,.26-1.22,2.24,2.24,0,0,0-.26-1.21,1.11,1.11,0,0,0-1.71,0A2.23,2.23,0,0,0,377.63,138.66Z"/><path d="M384.79,141.47q-2.53,0-2.53-2.78a3,3,0,0,1,.69-2.11,2.58,2.58,0,0,1,2-.73,3.76,3.76,0,0,1,1.69.37l-.44,1.14q-.35-.14-.65-.23a2.09,2.09,0,0,0-.6-.09q-1.15,0-1.15,1.64t1.15,1.59a2.63,2.63,0,0,0,.79-.11,2.85,2.85,0,0,0,.73-.36v1.26a2.38,2.38,0,0,1-.72.31A4.07,4.07,0,0,1,384.79,141.47Z"/><path d="M389.11,138.43l.64-.82,1.52-1.65h1.67l-2.15,2.35,2.28,3.07h-1.71l-1.56-2.19-.63.51v1.69H387.7v-7.54h1.48v3.36l-.08,1.23Z"/><path d="M396,141.47q-2.53,0-2.53-2.78a3,3,0,0,1,.69-2.11,2.58,2.58,0,0,1,2-.73,3.76,3.76,0,0,1,1.69.37l-.44,1.14q-.35-.14-.65-.23a2.09,2.09,0,0,0-.6-.09q-1.15,0-1.15,1.64t1.15,1.59a2.63,2.63,0,0,0,.79-.11,2.85,2.85,0,0,0,.73-.36v1.26a2.38,2.38,0,0,1-.72.31A4.07,4.07,0,0,1,396,141.47Z"/><path d="M403.95,141.38h-1.48v-3.16q0-1.17-.87-1.17a1,1,0,0,0-.9.42,2.57,2.57,0,0,0-.28,1.37v2.55h-1.48v-7.54h1.48v1.54q0,.18,0,.84l0,.44h.08a1.71,1.71,0,0,1,1.57-.79,1.92,1.92,0,0,1,1.45.51,2,2,0,0,1,.49,1.47Z"/><path d="M408.91,141.38l-.29-.74h0a2.18,2.18,0,0,1-.77.65,2.49,2.49,0,0,1-1,.18,1.67,1.67,0,0,1-1.23-.45,1.71,1.71,0,0,1-.45-1.27,1.43,1.43,0,0,1,.6-1.27,3.49,3.49,0,0,1,1.82-.45l.94,0v-.24a.74.74,0,0,0-.84-.82,3.84,3.84,0,0,0-1.53.39l-.49-1a4.41,4.41,0,0,1,2.07-.49,2.58,2.58,0,0,1,1.67.48,1.75,1.75,0,0,1,.58,1.44v3.61Zm-.44-2.51-.57,0a1.83,1.83,0,0,0-1,.23.73.73,0,0,0-.32.65q0,.62.72.63a1.14,1.14,0,0,0,.82-.3,1,1,0,0,0,.31-.78Z"/><path d="M411.4,134.56q0-.72.8-.72t.8.72a.7.7,0,0,1-.2.53.84.84,0,0,1-.6.19Q411.4,135.29,411.4,134.56Zm1.54,6.81h-1.48V136h1.48Z"/><path d="M419.48,141.38H418v-3.16a1.52,1.52,0,0,0-.21-.88.76.76,0,0,0-.66-.29,1,1,0,0,0-.9.41,2.57,2.57,0,0,0-.28,1.37v2.55h-1.48V136h1.13l.2.69h.08a1.56,1.56,0,0,1,.68-.59,2.32,2.32,0,0,1,1-.2,1.89,1.89,0,0,1,1.43.51,2,2,0,0,1,.49,1.47Z"/><path d="M345,44.27a1.83,1.83,0,0,1-.69,1.51,3,3,0,0,1-1.92.55,4.51,4.51,0,0,1-2-.43v-1.4a8.38,8.38,0,0,0,1.21.45,3.63,3.63,0,0,0,.91.13,1.3,1.3,0,0,0,.76-.19.65.65,0,0,0,.26-.56.62.62,0,0,0-.12-.37,1.31,1.31,0,0,0-.34-.31,8.71,8.71,0,0,0-.92-.48,4.38,4.38,0,0,1-1-.59,2.21,2.21,0,0,1-.52-.65,1.88,1.88,0,0,1-.19-.87,1.83,1.83,0,0,1,.64-1.48,2.65,2.65,0,0,1,1.76-.54,4.15,4.15,0,0,1,1.05.13,7.18,7.18,0,0,1,1,.37l-.48,1.17a7.16,7.16,0,0,0-.94-.32,3,3,0,0,0-.73-.09,1,1,0,0,0-.65.2A.65.65,0,0,0,342,41a.64.64,0,0,0,.09.35,1,1,0,0,0,.29.29,8.93,8.93,0,0,0,1,.5,3.77,3.77,0,0,1,1.36,1A1.86,1.86,0,0,1,345,44.27Z"/><path d="M348.49,45.15a3.21,3.21,0,0,0,.93-.17v1.1a3.33,3.33,0,0,1-1.36.25,1.66,1.66,0,0,1-1.29-.45,2,2,0,0,1-.4-1.34V41.93h-.71V41.3l.81-.49.43-1.14h.94v1.15h1.52v1.11h-1.52v2.61A.58.58,0,0,0,348,45,.69.69,0,0,0,348.49,45.15Z"/><path d="M354,46.23l-.29-.74h0a2.18,2.18,0,0,1-.77.65,2.49,2.49,0,0,1-1,.18,1.67,1.67,0,0,1-1.23-.45,1.71,1.71,0,0,1-.45-1.27,1.43,1.43,0,0,1,.6-1.27,3.49,3.49,0,0,1,1.82-.45l.94,0v-.24a.74.74,0,0,0-.84-.82,3.84,3.84,0,0,0-1.53.39l-.49-1a4.41,4.41,0,0,1,2.07-.49,2.58,2.58,0,0,1,1.67.48,1.75,1.75,0,0,1,.58,1.44v3.61Zm-.44-2.51-.57,0a1.83,1.83,0,0,0-1,.23.73.73,0,0,0-.32.65q0,.62.72.63a1.14,1.14,0,0,0,.82-.3,1,1,0,0,0,.31-.78Z"/><path d="M361.22,40.82v.75l-.85.22a1.48,1.48,0,0,1,.23.81A1.64,1.64,0,0,1,360,44a2.64,2.64,0,0,1-1.69.49H358l-.22,0a.49.49,0,0,0-.23.39q0,.32.81.32h.92a2.1,2.1,0,0,1,1.36.38,1.37,1.37,0,0,1,.47,1.12,1.67,1.67,0,0,1-.79,1.47,4.13,4.13,0,0,1-2.27.52,3.15,3.15,0,0,1-1.73-.39,1.25,1.25,0,0,1-.6-1.11,1.15,1.15,0,0,1,.31-.82,1.72,1.72,0,0,1,.9-.47,1,1,0,0,1-.4-.32.78.78,0,0,1,0-1,2.06,2.06,0,0,1,.52-.4,1.45,1.45,0,0,1-.68-.59,1.8,1.8,0,0,1-.25-1,1.69,1.69,0,0,1,.58-1.37,2.49,2.49,0,0,1,1.65-.48,4.23,4.23,0,0,1,.54,0l.4.06ZM357,47a.54.54,0,0,0,.29.48,1.61,1.61,0,0,0,.82.17,2.91,2.91,0,0,0,1.25-.22.66.66,0,0,0,.45-.6.42.42,0,0,0-.27-.42,2.18,2.18,0,0,0-.82-.12H358a1.16,1.16,0,0,0-.68.19A.59.59,0,0,0,357,47Zm.54-4.41a1.1,1.1,0,0,0,.2.7.73.73,0,0,0,.61.26.71.71,0,0,0,.61-.26,1.13,1.13,0,0,0,.19-.7q0-1-.8-1T357.57,42.59Z"/><path d="M364.56,46.33a2.79,2.79,0,0,1-2-.72,2.73,2.73,0,0,1-.74-2,3,3,0,0,1,.68-2.1,2.42,2.42,0,0,1,1.88-.74,2.39,2.39,0,0,1,1.79.65,2.47,2.47,0,0,1,.64,1.81v.72h-3.49a1.42,1.42,0,0,0,.37,1,1.31,1.31,0,0,0,1,.35,4.06,4.06,0,0,0,.92-.1,4.66,4.66,0,0,0,.91-.32v1.14a3.5,3.5,0,0,1-.83.29A5.26,5.26,0,0,1,364.56,46.33Zm-.21-4.56a.94.94,0,0,0-.74.3,1.38,1.38,0,0,0-.3.85h2.07a1.24,1.24,0,0,0-.29-.85A1,1,0,0,0,364.35,41.77Z"/><path d="M375.12,46.23h-5v-1l1.78-1.8q.79-.81,1-1.12a2.49,2.49,0,0,0,.35-.58,1.46,1.46,0,0,0,.11-.55.81.81,0,0,0-.24-.63.91.91,0,0,0-.63-.21,1.8,1.8,0,0,0-.8.19A4.11,4.11,0,0,0,371,41l-.81-1a5.28,5.28,0,0,1,.87-.63,3.18,3.18,0,0,1,.75-.28,3.86,3.86,0,0,1,.91-.1,2.7,2.7,0,0,1,1.17.24,1.88,1.88,0,0,1,.79.68,1.81,1.81,0,0,1,.28,1,2.45,2.45,0,0,1-.17.92,3.53,3.53,0,0,1-.53.88,13,13,0,0,1-1.27,1.28l-.91.86V45h3.09Z"/><circle class="cls-1" cx="87.88" cy="79.98" r="42.54" transform="translate(-12.55 16.47) rotate(-10)"/><path d="M66.25,67.92h1.82a3.5,3.5,0,0,1,1.8.35,1.23,1.23,0,0,1,.56,1.12,1.42,1.42,0,0,1-.24.86,1,1,0,0,1-.65.4v0a1.29,1.29,0,0,1,.8.46,1.5,1.5,0,0,1,.24.9A1.48,1.48,0,0,1,70,73.31a2.49,2.49,0,0,1-1.57.45H66.25Zm1.24,3.29v1.52h.81a1.19,1.19,0,0,0,.75-.2.72.72,0,0,0,.24-.6q0-.73-1-.73Zm0-1h.72a1.31,1.31,0,0,0,.73-.16.58.58,0,0,0,.23-.52.52.52,0,0,0-.24-.48,1.58,1.58,0,0,0-.78-.15h-.65Z"/><path d="M74.81,73.76l-.16-.57h-.06a1.28,1.28,0,0,1-.55.48,1.9,1.9,0,0,1-.82.17A1.56,1.56,0,0,1,72,73.42a1.7,1.7,0,0,1-.4-1.21V69.3h1.22V71.9a1.24,1.24,0,0,0,.17.72.62.62,0,0,0,.55.24.82.82,0,0,0,.74-.34,2.13,2.13,0,0,0,.23-1.13V69.3h1.22v4.46Z"/><path d="M76.38,69.3h1.33l.84,2.51a3.56,3.56,0,0,1,.15.77h0a3.4,3.4,0,0,1,.17-.77l.83-2.51H81l-1.89,5a2.18,2.18,0,0,1-.74,1,1.87,1.87,0,0,1-1.12.35,2.8,2.8,0,0,1-.62-.07v-1a2.1,2.1,0,0,0,.48.05.86.86,0,0,0,.56-.2,1.27,1.27,0,0,0,.38-.6l.07-.22Z"/><path d="M86.36,73.76,85,69.18h0Q85,70.58,85,71v2.71H83.89V67.92h1.68L87,72.39h0l1.47-4.46h1.68v5.83H89V71c0-.13,0-.28,0-.45s0-.62.05-1.36h0l-1.51,4.57Z"/><path d="M96.77,73.76H95.2l-2.54-4.41h0q.08,1.17.08,1.67v2.75H91.59V67.92h1.56l2.53,4.37h0q-.06-1.14-.06-1.61V67.93h1.11Z"/><path d="M100.49,73.76H99.25V69H97.67v-1h4.41v1h-1.58Z"/><path d="M107,69.75a1.78,1.78,0,0,1-.59,1.44,2.51,2.51,0,0,1-1.67.5h-.53v2.07H103V67.93h1.86a2.48,2.48,0,0,1,1.61.46A1.67,1.67,0,0,1,107,69.75Zm-2.79.93h.41a1.36,1.36,0,0,0,.85-.23.79.79,0,0,0,.28-.66.81.81,0,0,0-.24-.64,1.11,1.11,0,0,0-.74-.21h-.56Z"/><path d="M59.62,81.69a2.62,2.62,0,0,0,.77-.14v.91a2.73,2.73,0,0,1-1.12.2,1.37,1.37,0,0,1-1.06-.37,1.61,1.61,0,0,1-.33-1.11V79h-.58v-.51l.67-.41.35-.94h.78v1h1.25V79H59.09v2.15a.48.48,0,0,0,.15.38A.57.57,0,0,0,59.62,81.69Z"/><path d="M65.34,80.34a2.4,2.4,0,0,1-.57,1.7,2.09,2.09,0,0,1-1.6.61A2.24,2.24,0,0,1,62,82.38a1.87,1.87,0,0,1-.75-.81A2.72,2.72,0,0,1,61,80.34a2.39,2.39,0,0,1,.57-1.7,2.1,2.1,0,0,1,1.6-.61,2.25,2.25,0,0,1,1.13.28,1.86,1.86,0,0,1,.75.8A2.69,2.69,0,0,1,65.34,80.34Zm-3.09,0a1.87,1.87,0,0,0,.22,1,.78.78,0,0,0,.71.34.76.76,0,0,0,.7-.34,1.9,1.9,0,0,0,.21-1,1.85,1.85,0,0,0-.21-1,.92.92,0,0,0-1.41,0A1.84,1.84,0,0,0,62.26,80.34Z"/><path d="M67.52,80.15l.53-.68,1.25-1.36h1.37L68.9,80.05l1.88,2.53h-1.4l-1.28-1.81-.52.42v1.39H66.35V76.37h1.22v2.77l-.06,1Z"/><path d="M73.44,82.66a2.3,2.3,0,0,1-1.68-.6,2.25,2.25,0,0,1-.61-1.68,2.47,2.47,0,0,1,.56-1.73A2,2,0,0,1,73.26,78a2,2,0,0,1,1.47.54,2,2,0,0,1,.53,1.49v.59H72.38a1.17,1.17,0,0,0,.31.81,1.08,1.08,0,0,0,.81.29,3.37,3.37,0,0,0,.76-.08A3.84,3.84,0,0,0,75,81.4v.94a2.86,2.86,0,0,1-.68.24A4.29,4.29,0,0,1,73.44,82.66Zm-.17-3.76a.77.77,0,0,0-.61.25,1.13,1.13,0,0,0-.25.7h1.71a1,1,0,0,0-.24-.7A.8.8,0,0,0,73.27,78.9Z"/><path d="M80.37,82.58H79.15V80a1.26,1.26,0,0,0-.17-.72.63.63,0,0,0-.55-.24.82.82,0,0,0-.74.34,2.12,2.12,0,0,0-.23,1.13v2.1H76.25V78.12h.93l.16.57h.07A1.28,1.28,0,0,1,78,78.2a1.9,1.9,0,0,1,.81-.17,1.56,1.56,0,0,1,1.18.42,1.69,1.69,0,0,1,.4,1.21Z"/><path d="M83.43,80.34a6.19,6.19,0,0,1,.31-2,4.91,4.91,0,0,1,.89-1.62h1a5.77,5.77,0,0,0-.85,1.69,6.35,6.35,0,0,0-.29,1.9,6.13,6.13,0,0,0,.29,1.89,5.73,5.73,0,0,0,.84,1.65h-1a4.67,4.67,0,0,1-.89-1.58A6,6,0,0,1,83.43,80.34Z"/><path d="M90,82.58H86.61V76.74H90v1H87.85V79h2v1h-2v1.5H90Z"/><path d="M92.42,80.34v2.24H91.19V76.74h1.7a2.91,2.91,0,0,1,1.76.43,1.73,1.73,0,0,1,.29,2.23,1.88,1.88,0,0,1-.8.63q1.32,2,1.72,2.54H94.47l-1.39-2.24Zm0-1h.4a1.53,1.53,0,0,0,.87-.2.7.7,0,0,0,.28-.61.64.64,0,0,0-.29-.59,1.73,1.73,0,0,0-.88-.18h-.38Z"/><path d="M99.06,77.69a1.26,1.26,0,0,0-1.08.52,2.44,2.44,0,0,0-.38,1.46q0,2,1.46,2a4.64,4.64,0,0,0,1.49-.31v1a4.14,4.14,0,0,1-1.6.3A2.45,2.45,0,0,1,97,81.89a3.27,3.27,0,0,1-.67-2.22,3.63,3.63,0,0,1,.33-1.59,2.4,2.4,0,0,1,1-1,2.82,2.82,0,0,1,1.45-.36,3.93,3.93,0,0,1,1.71.41l-.4,1a7,7,0,0,0-.66-.27A2,2,0,0,0,99.06,77.69Z"/><path d="M101.3,80.89v-1h2.14v1Z"/><path d="M108.09,82.58H104v-.86l1.46-1.48q.65-.67.85-.92a2,2,0,0,0,.29-.48,1.2,1.2,0,0,0,.09-.46.66.66,0,0,0-.19-.52.75.75,0,0,0-.52-.17,1.48,1.48,0,0,0-.66.16,3.34,3.34,0,0,0-.67.44l-.67-.8a4.43,4.43,0,0,1,.72-.52,2.6,2.6,0,0,1,.62-.23,3.17,3.17,0,0,1,.75-.08,2.23,2.23,0,0,1,1,.2,1.54,1.54,0,0,1,.65.56,1.49,1.49,0,0,1,.23.82,2,2,0,0,1-.14.76,2.9,2.9,0,0,1-.44.72,10.67,10.67,0,0,1-1,1.06l-.75.71v.06h2.54Z"/><path d="M112.72,79.66a4.07,4.07,0,0,1-.5,2.26,1.74,1.74,0,0,1-1.54.73,1.72,1.72,0,0,1-1.52-.76,4,4,0,0,1-.51-2.24,4.1,4.1,0,0,1,.5-2.28,1.94,1.94,0,0,1,3.06,0A4,4,0,0,1,112.72,79.66Zm-2.85,0a4.55,4.55,0,0,0,.18,1.54.65.65,0,0,0,1.25,0,6.23,6.23,0,0,0,0-3.08.65.65,0,0,0-.62-.47.64.64,0,0,0-.62.47A4.51,4.51,0,0,0,109.87,79.66Z"/><path d="M115.46,80.34a6,6,0,0,1-.31,2,4.67,4.67,0,0,1-.89,1.58h-1a5.77,5.77,0,0,0,.83-1.65,6.12,6.12,0,0,0,.3-1.89,6.35,6.35,0,0,0-.29-1.9,5.75,5.75,0,0,0-.85-1.69h1a4.89,4.89,0,0,1,.89,1.62A6.2,6.2,0,0,1,115.46,80.34Z"/><path d="M58.54,89.16a2.4,2.4,0,0,1-.57,1.7,2.09,2.09,0,0,1-1.6.61,2.24,2.24,0,0,1-1.13-.28,1.88,1.88,0,0,1-.75-.81,2.72,2.72,0,0,1-.26-1.23,2.39,2.39,0,0,1,.57-1.7,2.1,2.1,0,0,1,1.6-.61,2.25,2.25,0,0,1,1.13.28,1.86,1.86,0,0,1,.75.8A2.69,2.69,0,0,1,58.54,89.16Zm-3.09,0a1.87,1.87,0,0,0,.22,1,.78.78,0,0,0,.71.34.76.76,0,0,0,.7-.34,1.9,1.9,0,0,0,.21-1,1.85,1.85,0,0,0-.21-1,.92.92,0,0,0-1.41,0A1.84,1.84,0,0,0,55.46,89.16Z"/><path d="M63.67,91.4H62.45V88.79a1.26,1.26,0,0,0-.17-.72.63.63,0,0,0-.55-.24.82.82,0,0,0-.74.34,2.12,2.12,0,0,0-.23,1.13v2.1H59.55V86.94h.93l.16.57h.07a1.28,1.28,0,0,1,.56-.49,1.9,1.9,0,0,1,.81-.17,1.56,1.56,0,0,1,1.18.42,1.69,1.69,0,0,1,.4,1.21Z"/><path d="M68.92,90.51a2.62,2.62,0,0,0,.77-.14v.91a2.73,2.73,0,0,1-1.12.2,1.37,1.37,0,0,1-1.06-.37A1.61,1.61,0,0,1,67.17,90V87.85h-.58v-.51l.67-.41.35-.94h.78v1h1.25v.91H68.39V90a.48.48,0,0,0,.15.38A.57.57,0,0,0,68.92,90.51Z"/><path d="M74.71,91.4H73.49V88.79q0-1-.72-1a.82.82,0,0,0-.74.35,2.12,2.12,0,0,0-.23,1.12v2.1H70.59V85.19h1.22v1.26c0,.1,0,.33,0,.69l0,.36h.06a1.41,1.41,0,0,1,1.29-.65,1.58,1.58,0,0,1,1.19.42,1.68,1.68,0,0,1,.41,1.21Z"/><path d="M78,91.48a2.3,2.3,0,0,1-1.68-.6,2.25,2.25,0,0,1-.61-1.68,2.47,2.47,0,0,1,.56-1.73,2,2,0,0,1,1.55-.61,2,2,0,0,1,1.47.54,2,2,0,0,1,.53,1.49v.59H76.92a1.17,1.17,0,0,0,.31.81,1.08,1.08,0,0,0,.81.29,3.37,3.37,0,0,0,.76-.08,3.84,3.84,0,0,0,.75-.27v.94a2.86,2.86,0,0,1-.68.24A4.29,4.29,0,0,1,78,91.48Zm-.17-3.76a.77.77,0,0,0-.61.25,1.13,1.13,0,0,0-.25.7h1.71a1,1,0,0,0-.24-.7A.8.8,0,0,0,77.81,87.72Z"/><path d="M84.93,91.48a2.3,2.3,0,0,1-1.68-.6,2.25,2.25,0,0,1-.61-1.68,2.47,2.47,0,0,1,.56-1.73,2,2,0,0,1,1.55-.61,2,2,0,0,1,1.47.54,2,2,0,0,1,.53,1.49v.59H83.88a1.17,1.17,0,0,0,.31.81,1.08,1.08,0,0,0,.81.29,3.37,3.37,0,0,0,.76-.08,3.84,3.84,0,0,0,.75-.27v.94a2.86,2.86,0,0,1-.68.24A4.29,4.29,0,0,1,84.93,91.48Zm-.17-3.76a.77.77,0,0,0-.61.25,1.13,1.13,0,0,0-.25.7h1.71a1,1,0,0,0-.24-.7A.8.8,0,0,0,84.76,87.72Z"/><path d="M88.66,89.12l-1.44-2.18H88.6l.87,1.42.87-1.42h1.38l-1.45,2.18,1.52,2.28H90.41l-.94-1.53-.94,1.53H87.14Z"/><path d="M94.28,91.48q-2.08,0-2.08-2.29a2.44,2.44,0,0,1,.57-1.74,2.13,2.13,0,0,1,1.62-.6,3.09,3.09,0,0,1,1.39.3l-.36.94-.53-.19a1.72,1.72,0,0,0-.49-.07q-.95,0-1,1.35t1,1.31A2.16,2.16,0,0,0,95,90.4a2.34,2.34,0,0,0,.6-.29v1a2,2,0,0,1-.6.26A3.38,3.38,0,0,1,94.28,91.48Z"/><path d="M100.79,91.4H99.57V88.79q0-1-.72-1a.82.82,0,0,0-.74.35,2.12,2.12,0,0,0-.23,1.12v2.1H96.67V85.19h1.22v1.26c0,.1,0,.33,0,.69l0,.36h.06a1.41,1.41,0,0,1,1.29-.65,1.58,1.58,0,0,1,1.19.42,1.68,1.68,0,0,1,.41,1.21Z"/><path d="M104.88,91.4l-.24-.61h0a1.8,1.8,0,0,1-.63.54,2.05,2.05,0,0,1-.85.15,1.37,1.37,0,0,1-1-.37,1.41,1.41,0,0,1-.37-1,1.18,1.18,0,0,1,.5-1,2.88,2.88,0,0,1,1.5-.37l.78,0v-.2a.61.61,0,0,0-.69-.68,3.15,3.15,0,0,0-1.26.32l-.4-.82a3.63,3.63,0,0,1,1.71-.4,2.14,2.14,0,0,1,1.38.39,1.45,1.45,0,0,1,.48,1.19v3Zm-.36-2.07H104a1.5,1.5,0,0,0-.79.19.6.6,0,0,0-.26.54q0,.51.59.51a.94.94,0,0,0,.68-.24.86.86,0,0,0,.25-.65Z"/><path d="M111.1,91.4h-1.22V88.8a1.26,1.26,0,0,0-.17-.72.63.63,0,0,0-.55-.24.82.82,0,0,0-.74.34,2.12,2.12,0,0,0-.23,1.13v2.1H107V86.94h.93l.16.57h.07a1.28,1.28,0,0,1,.56-.49,1.9,1.9,0,0,1,.81-.17,1.56,1.56,0,0,1,1.18.42,1.69,1.69,0,0,1,.4,1.21Z"/><path d="M116.23,86.94v.62l-.7.18a1.22,1.22,0,0,1,.19.67,1.35,1.35,0,0,1-.5,1.12,2.17,2.17,0,0,1-1.39.4h-.22l-.18,0a.4.4,0,0,0-.19.32c0,.18.22.26.67.26h.76a1.73,1.73,0,0,1,1.12.32,1.13,1.13,0,0,1,.38.93,1.37,1.37,0,0,1-.65,1.21,3.4,3.4,0,0,1-1.87.43,2.59,2.59,0,0,1-1.43-.33,1,1,0,0,1-.49-.91,1,1,0,0,1,.25-.67,1.43,1.43,0,0,1,.74-.39.82.82,0,0,1-.33-.26.64.64,0,0,1,0-.81,1.71,1.71,0,0,1,.43-.33,1.2,1.2,0,0,1-.56-.49,1.48,1.48,0,0,1-.21-.79,1.39,1.39,0,0,1,.47-1.13,2.05,2.05,0,0,1,1.36-.4l.44,0,.33.05ZM112.79,92a.44.44,0,0,0,.24.4,1.33,1.33,0,0,0,.68.14,2.39,2.39,0,0,0,1-.18.55.55,0,0,0,.37-.49.35.35,0,0,0-.22-.35,1.81,1.81,0,0,0-.68-.1h-.63a1,1,0,0,0-.56.16A.49.49,0,0,0,112.79,92Zm.44-3.63a.91.91,0,0,0,.17.58.6.6,0,0,0,.5.21.59.59,0,0,0,.5-.21.93.93,0,0,0,.16-.58q0-.81-.66-.81T113.23,88.4Z"/><path d="M119,91.48a2.3,2.3,0,0,1-1.68-.6,2.25,2.25,0,0,1-.61-1.68,2.47,2.47,0,0,1,.56-1.73,2,2,0,0,1,1.55-.61,2,2,0,0,1,1.47.54,2,2,0,0,1,.53,1.49v.59h-2.88a1.17,1.17,0,0,0,.31.81,1.08,1.08,0,0,0,.81.29,3.37,3.37,0,0,0,.76-.08,3.84,3.84,0,0,0,.75-.27v.94a2.86,2.86,0,0,1-.68.24A4.29,4.29,0,0,1,119,91.48Zm-.17-3.76a.77.77,0,0,0-.61.25,1.13,1.13,0,0,0-.25.7h1.71a1,1,0,0,0-.24-.7A.8.8,0,0,0,118.82,87.72Z"/><circle class="cls-2" cx="200.91" cy="70.91" r="42.54" transform="translate(-9.26 35.95) rotate(-10)"/><path class="cls-3" d="M183.44,56a1.51,1.51,0,0,1-.55,1.25,2.47,2.47,0,0,1-1.57.48,3.71,3.71,0,0,1-1.66-.32l0-1.15a6.75,6.75,0,0,0,1,.35,3,3,0,0,0,.75.1,1.07,1.07,0,0,0,.62-.17.53.53,0,0,0,.21-.47.51.51,0,0,0-.1-.3,1.08,1.08,0,0,0-.29-.25,7.58,7.58,0,0,0-.76-.38,3.52,3.52,0,0,1-.81-.47,1.82,1.82,0,0,1-.44-.53,1.54,1.54,0,0,1-.17-.72,1.51,1.51,0,0,1,.5-1.23,2.17,2.17,0,0,1,1.44-.47,3.39,3.39,0,0,1,.87.09,6,6,0,0,1,.87.29l-.38,1a5.79,5.79,0,0,0-.78-.25,2.5,2.5,0,0,0-.6-.07.8.8,0,0,0-.54.17.54.54,0,0,0-.18.43.53.53,0,0,0,.08.28.85.85,0,0,0,.25.23,7.57,7.57,0,0,0,.79.39,3.11,3.11,0,0,1,1.13.77A1.53,1.53,0,0,1,183.44,56Z"/><path class="cls-3" d="M186.29,56.65a2.62,2.62,0,0,0,.76-.15v.91a2.72,2.72,0,0,1-1.11.22,1.36,1.36,0,0,1-1.07-.35,1.6,1.6,0,0,1-.35-1.1l0-2.15h-.58v-.51l.66-.42.33-.95h.78l0,1,1.25,0,0,.91-1.25,0,0,2.15a.48.48,0,0,0,.15.38A.57.57,0,0,0,186.29,56.65Z"/><path class="cls-3" d="M190.81,57.46l-.25-.6h0a1.82,1.82,0,0,1-.62.55,2.06,2.06,0,0,1-.85.16,1.37,1.37,0,0,1-1-.35,1.41,1.41,0,0,1-.39-1,1.17,1.17,0,0,1,.48-1.06,2.88,2.88,0,0,1,1.49-.4l.77,0v-.2a.61.61,0,0,0-.71-.67,3.16,3.16,0,0,0-1.25.34l-.42-.82a3.63,3.63,0,0,1,1.7-.43,2.13,2.13,0,0,1,1.38.37,1.44,1.44,0,0,1,.5,1.18l.05,3Zm-.39-2.06-.47,0a1.5,1.5,0,0,0-.79.21.6.6,0,0,0-.25.54c0,.34.21.51.6.5a.94.94,0,0,0,.67-.25.85.85,0,0,0,.24-.65Z"/><path class="cls-3" d="M194,55l.52-.69,1.23-1.38,1.37,0-1.74,2,1.92,2.49-1.4,0-1.32-1.79-.52.43,0,1.39-1.22,0-.11-6.21,1.22,0,0,2.77,0,1Z"/><path class="cls-3" d="M200,57.39a2.29,2.29,0,0,1-1.69-.57,2.25,2.25,0,0,1-.63-1.67,2.48,2.48,0,0,1,.53-1.74,2,2,0,0,1,1.54-.64,2,2,0,0,1,1.48.51,2,2,0,0,1,.55,1.48v.59l-2.88,0a1.17,1.17,0,0,0,.32.8,1.08,1.08,0,0,0,.81.28,3.34,3.34,0,0,0,.76-.1,3.81,3.81,0,0,0,.75-.28l0,.94a2.87,2.87,0,0,1-.68.25A4.23,4.23,0,0,1,200,57.39Zm-.24-3.76a.77.77,0,0,0-.6.26,1.14,1.14,0,0,0-.24.7l1.71,0a1,1,0,0,0-.25-.69A.8.8,0,0,0,199.76,53.63Z"/><path class="cls-3" d="M204.21,52.77l1.33,0,.89,2.49a3.49,3.49,0,0,1,.16.77h0a3.41,3.41,0,0,1,.16-.78l.78-2.52,1.31,0-1.8,5.06a2.18,2.18,0,0,1-.72,1.06,1.86,1.86,0,0,1-1.12.37,2.75,2.75,0,0,1-.62-.06l0-1a2.08,2.08,0,0,0,.48,0,.86.86,0,0,0,.56-.21,1.26,1.26,0,0,0,.37-.6l.07-.22Z"/><path class="cls-3" d="M213.59,54.83a2.4,2.4,0,0,1-.55,1.71,2.09,2.09,0,0,1-1.59.64,2.24,2.24,0,0,1-1.14-.26,1.87,1.87,0,0,1-.77-.8,2.71,2.71,0,0,1-.28-1.22,2.39,2.39,0,0,1,.54-1.71,2.1,2.1,0,0,1,1.59-.63,2.24,2.24,0,0,1,1.14.26,1.86,1.86,0,0,1,.77.79A2.69,2.69,0,0,1,213.59,54.83Zm-3.09.05a1.87,1.87,0,0,0,.23,1,.78.78,0,0,0,.72.33.76.76,0,0,0,.69-.35,1.9,1.9,0,0,0,.2-1,1.84,1.84,0,0,0-.23-1,.92.92,0,0,0-1.41,0A1.84,1.84,0,0,0,210.51,54.88Z"/><path class="cls-3" d="M217.8,57l-.17-.57h-.06a1.28,1.28,0,0,1-.55.49,1.9,1.9,0,0,1-.82.18,1.56,1.56,0,0,1-1.19-.4,1.7,1.7,0,0,1-.42-1.2l-.05-2.91,1.22,0,0,2.61a1.25,1.25,0,0,0,.18.72.62.62,0,0,0,.55.23.82.82,0,0,0,.73-.35,2.12,2.12,0,0,0,.21-1.14l0-2.1,1.22,0,.08,4.46Z"/><path class="cls-3" d="M222.42,52.37a2,2,0,0,1,.41,0l-.07,1.14a1.4,1.4,0,0,0-.36,0,1.29,1.29,0,0,0-.9.32,1.08,1.08,0,0,0-.31.84l0,2.27L220,57l-.08-4.46.92,0,.19.75h.06a1.69,1.69,0,0,1,.55-.61A1.39,1.39,0,0,1,222.42,52.37Z"/><path class="cls-3" d="M176.94,65.64a2.61,2.61,0,0,0,.76-.15l0,.91a2.74,2.74,0,0,1-1.11.22,1.37,1.37,0,0,1-1.07-.35,1.61,1.61,0,0,1-.35-1.1l0-2.15h-.58V62.5l.66-.42.34-.95h.78l0,1,1.25,0,0,.91-1.25,0,0,2.15a.48.48,0,0,0,.15.38A.58.58,0,0,0,176.94,65.64Z"/><path class="cls-3" d="M182.64,64.19a2.4,2.4,0,0,1-.54,1.71,2.09,2.09,0,0,1-1.59.64,2.24,2.24,0,0,1-1.14-.26,1.88,1.88,0,0,1-.77-.8,2.71,2.71,0,0,1-.28-1.22,2.39,2.39,0,0,1,.54-1.71,2.1,2.1,0,0,1,1.59-.63,2.24,2.24,0,0,1,1.14.26,1.86,1.86,0,0,1,.77.79A2.69,2.69,0,0,1,182.64,64.19Zm-3.08.05a1.87,1.87,0,0,0,.24,1,.78.78,0,0,0,.71.33.76.76,0,0,0,.69-.35,1.91,1.91,0,0,0,.2-1,1.85,1.85,0,0,0-.23-1,.92.92,0,0,0-1.41,0A1.85,1.85,0,0,0,179.56,64.24Z"/><path class="cls-3" d="M184.81,64l.52-.69,1.23-1.38,1.37,0-1.74,2,1.92,2.49-1.4,0-1.31-1.79-.52.43,0,1.39-1.22,0-.11-6.21,1.22,0,0,2.77,0,1Z"/><path class="cls-3" d="M190.77,66.37a2.3,2.3,0,0,1-1.69-.57,2.25,2.25,0,0,1-.64-1.67,2.47,2.47,0,0,1,.53-1.74,2,2,0,0,1,1.54-.64,2,2,0,0,1,1.48.51,2,2,0,0,1,.55,1.48v.59l-2.88,0a1.17,1.17,0,0,0,.32.8,1.08,1.08,0,0,0,.81.28,3.44,3.44,0,0,0,.76-.1,3.85,3.85,0,0,0,.75-.28l0,.94a2.84,2.84,0,0,1-.68.25A4.28,4.28,0,0,1,190.77,66.37Zm-.24-3.76a.77.77,0,0,0-.6.26,1.13,1.13,0,0,0-.24.7l1.71,0a1,1,0,0,0-.25-.69A.8.8,0,0,0,190.54,62.61Z"/><path class="cls-3" d="M197.7,66.17l-1.22,0,0-2.61a1.26,1.26,0,0,0-.18-.72.63.63,0,0,0-.55-.23A.82.82,0,0,0,195,63a2.11,2.11,0,0,0-.21,1.14l0,2.1-1.22,0-.08-4.46.93,0,.17.57h.07a1.27,1.27,0,0,1,.55-.5,1.9,1.9,0,0,1,.81-.18,1.56,1.56,0,0,1,1.19.4,1.69,1.69,0,0,1,.42,1.21Z"/><path class="cls-3" d="M202,64.77a1.23,1.23,0,0,1-.46,1.05,2.36,2.36,0,0,1-1.42.38,4.38,4.38,0,0,1-.83-.05,3.1,3.1,0,0,1-.65-.18l0-1a4.21,4.21,0,0,0,.77.25,3.05,3.05,0,0,0,.75.09q.66,0,.66-.39a.32.32,0,0,0-.09-.23,1.26,1.26,0,0,0-.31-.2l-.58-.26a3.61,3.61,0,0,1-.76-.39,1.12,1.12,0,0,1-.36-.41,1.38,1.38,0,0,1-.12-.58,1.06,1.06,0,0,1,.44-.93,2.25,2.25,0,0,1,1.3-.35,3.71,3.71,0,0,1,1.57.32l-.35.88a6.69,6.69,0,0,0-.63-.22,2,2,0,0,0-.6-.08q-.54,0-.53.3a.34.34,0,0,0,.18.28,4.69,4.69,0,0,0,.77.34,3.5,3.5,0,0,1,.77.38,1.16,1.16,0,0,1,.37.42A1.29,1.29,0,0,1,202,64.77Z"/><path class="cls-3" d="M205,60.42q0-.59.65-.61t.67.58a.58.58,0,0,1-.16.44.7.7,0,0,1-.49.17C205.22,61,205,60.82,205,60.42ZM206.35,66l-1.22,0-.08-4.46,1.22,0Z"/><path class="cls-3" d="M211.75,65.92l-1.22,0,0-2.61a1.26,1.26,0,0,0-.18-.72.63.63,0,0,0-.55-.23.82.82,0,0,0-.73.35,2.11,2.11,0,0,0-.21,1.14l0,2.1-1.22,0-.08-4.46.93,0,.17.57h.07a1.27,1.27,0,0,1,.55-.5,1.9,1.9,0,0,1,.81-.18,1.56,1.56,0,0,1,1.19.4A1.69,1.69,0,0,1,211.7,63Z"/><path class="cls-3" d="M217,64.94a2.61,2.61,0,0,0,.76-.15l0,.91a2.72,2.72,0,0,1-1.11.22,1.36,1.36,0,0,1-1.07-.35,1.61,1.61,0,0,1-.35-1.1l0-2.15h-.58v-.51l.66-.42.34-.95h.78l0,1,1.25,0,0,.91-1.25,0,0,2.15a.47.47,0,0,0,.15.38A.58.58,0,0,0,217,64.94Z"/><path class="cls-3" d="M222.79,65.73l-1.22,0,0-2.61q0-1-.73-1a.82.82,0,0,0-.73.36,2.12,2.12,0,0,0-.21,1.13l0,2.1-1.22,0-.11-6.21,1.22,0,0,1.26q0,.15,0,.69l0,.36h.06a1.41,1.41,0,0,1,1.28-.68,1.58,1.58,0,0,1,1.2.4,1.67,1.67,0,0,1,.43,1.21Z"/><path class="cls-3" d="M226.06,65.76a2.3,2.3,0,0,1-1.69-.57,2.25,2.25,0,0,1-.64-1.67,2.47,2.47,0,0,1,.53-1.74,2,2,0,0,1,1.54-.64,2,2,0,0,1,1.48.51,2,2,0,0,1,.55,1.48v.59l-2.88,0a1.17,1.17,0,0,0,.32.8,1.08,1.08,0,0,0,.81.28,3.34,3.34,0,0,0,.76-.1,3.81,3.81,0,0,0,.75-.28l0,.94a2.87,2.87,0,0,1-.68.25A4.29,4.29,0,0,1,226.06,65.76ZM225.83,62a.77.77,0,0,0-.6.26,1.13,1.13,0,0,0-.24.7l1.71,0a1,1,0,0,0-.25-.69A.8.8,0,0,0,225.83,62Z"/><path class="cls-3" d="M171.05,75.53a1.48,1.48,0,0,1-1.24-.55h-.06c0,.37.07.59.07.64l0,1.81-1.22,0L168.52,71l1,0,.18.58h.06A1.41,1.41,0,0,1,171,70.9a1.45,1.45,0,0,1,1.25.59,2.82,2.82,0,0,1,.48,1.69,3.33,3.33,0,0,1-.19,1.24,1.74,1.74,0,0,1-.58.81A1.53,1.53,0,0,1,171.05,75.53Zm-.42-3.65a.77.77,0,0,0-.65.29,1.58,1.58,0,0,0-.2.92v.13a1.88,1.88,0,0,0,.23,1,.76.76,0,0,0,.68.3q.82,0,.8-1.36a1.94,1.94,0,0,0-.22-1A.69.69,0,0,0,170.63,71.88Z"/><path class="cls-3" d="M177.79,73.09a2.39,2.39,0,0,1-.54,1.71,2.09,2.09,0,0,1-1.59.64,2.24,2.24,0,0,1-1.14-.26,1.88,1.88,0,0,1-.77-.79,2.74,2.74,0,0,1-.28-1.23,2.39,2.39,0,0,1,.54-1.71,2.09,2.09,0,0,1,1.59-.63,2.25,2.25,0,0,1,1.14.26,1.86,1.86,0,0,1,.77.79A2.69,2.69,0,0,1,177.79,73.09Zm-3.08.05a1.88,1.88,0,0,0,.23,1,.78.78,0,0,0,.72.33.76.76,0,0,0,.69-.35,1.9,1.9,0,0,0,.2-1,1.84,1.84,0,0,0-.23-1,.92.92,0,0,0-1.41,0A1.86,1.86,0,0,0,174.7,73.15Z"/><path class="cls-3" d="M182.85,73a2.39,2.39,0,0,1-.54,1.71,2.09,2.09,0,0,1-1.59.64,2.24,2.24,0,0,1-1.14-.26,1.88,1.88,0,0,1-.77-.8,2.74,2.74,0,0,1-.28-1.22,2.39,2.39,0,0,1,.54-1.71,2.09,2.09,0,0,1,1.59-.63,2.24,2.24,0,0,1,1.14.26,1.86,1.86,0,0,1,.77.79A2.69,2.69,0,0,1,182.85,73Zm-3.08.05a1.88,1.88,0,0,0,.24,1,.78.78,0,0,0,.71.33.76.76,0,0,0,.69-.35,1.9,1.9,0,0,0,.2-1,1.84,1.84,0,0,0-.23-1,.79.79,0,0,0-.71-.32.77.77,0,0,0-.69.34A1.84,1.84,0,0,0,179.76,73.06Z"/><path class="cls-3" d="M185.11,75.21l-1.22,0L183.78,69,185,69Z"/><path class="cls-3" d="M191.34,75.1l-.25-.6h0a1.81,1.81,0,0,1-.62.55,2.06,2.06,0,0,1-.85.16,1.37,1.37,0,0,1-1-.35,1.41,1.41,0,0,1-.39-1,1.18,1.18,0,0,1,.48-1.06,2.89,2.89,0,0,1,1.49-.4l.78,0v-.2a.61.61,0,0,0-.71-.67,3.15,3.15,0,0,0-1.25.35l-.42-.82a3.63,3.63,0,0,1,1.7-.43,2.13,2.13,0,0,1,1.38.37,1.45,1.45,0,0,1,.5,1.18l.05,3ZM190.95,73l-.47,0a1.51,1.51,0,0,0-.79.2.6.6,0,0,0-.25.54q0,.51.6.5a.94.94,0,0,0,.67-.26.86.86,0,0,0,.24-.65Z"/><path class="cls-3" d="M197.56,75l-1.22,0,0-2.61a1.26,1.26,0,0,0-.18-.72.63.63,0,0,0-.55-.23.82.82,0,0,0-.73.35,2.11,2.11,0,0,0-.21,1.13l0,2.1-1.22,0-.08-4.46.93,0,.17.57h.07a1.29,1.29,0,0,1,.55-.5,1.92,1.92,0,0,1,.81-.18,1.56,1.56,0,0,1,1.19.4,1.68,1.68,0,0,1,.42,1.21Z"/><path class="cls-3" d="M200.23,75a1.45,1.45,0,0,1-1.25-.59,3.42,3.42,0,0,1-.05-3.4,1.48,1.48,0,0,1,1.25-.63,1.46,1.46,0,0,1,1.3.63h0a4.9,4.9,0,0,1-.11-.89l0-1.43,1.22,0,.11,6.21-.93,0-.24-.57h-.05A1.4,1.4,0,0,1,200.23,75Zm.41-1a.82.82,0,0,0,.68-.28,1.57,1.57,0,0,0,.22-.93v-.13a1.82,1.82,0,0,0-.24-1,.82.82,0,0,0-.73-.3.71.71,0,0,0-.63.36,1.84,1.84,0,0,0-.21,1,1.75,1.75,0,0,0,.24,1A.75.75,0,0,0,200.64,74Z"/><path class="cls-3" d="M208.52,70.26a2,2,0,0,1,.41,0l-.07,1.14a1.4,1.4,0,0,0-.36,0,1.29,1.29,0,0,0-.9.32,1.08,1.08,0,0,0-.31.84l0,2.27-1.22,0L206,70.38l.92,0,.19.75h.06a1.69,1.69,0,0,1,.55-.61A1.39,1.39,0,0,1,208.52,70.26Z"/><path class="cls-3" d="M211.84,74.82a2.3,2.3,0,0,1-1.69-.57,2.25,2.25,0,0,1-.63-1.67,2.47,2.47,0,0,1,.53-1.74,2,2,0,0,1,1.54-.64,2,2,0,0,1,1.48.51,2,2,0,0,1,.55,1.48v.59l-2.88,0a1.18,1.18,0,0,0,.32.8,1.08,1.08,0,0,0,.81.28,3.44,3.44,0,0,0,.76-.1,3.86,3.86,0,0,0,.75-.28l0,.94a2.84,2.84,0,0,1-.68.25A4.28,4.28,0,0,1,211.84,74.82Zm-.24-3.76a.77.77,0,0,0-.6.26,1.13,1.13,0,0,0-.24.7l1.71,0a1,1,0,0,0-.25-.69A.8.8,0,0,0,211.6,71.07Z"/><path class="cls-3" d="M216.46,74.74q-2.08,0-2.12-2.25a2.44,2.44,0,0,1,.54-1.75,2.12,2.12,0,0,1,1.61-.63,3.1,3.1,0,0,1,1.39.28l-.34.95-.54-.18a1.73,1.73,0,0,0-.5-.07q-.95,0-.93,1.36t1,1.29a2.17,2.17,0,0,0,.65-.1,2.36,2.36,0,0,0,.59-.3l0,1a1.94,1.94,0,0,1-.59.27A3.37,3.37,0,0,1,216.46,74.74Z"/><path class="cls-3" d="M220.87,74.67a2.3,2.3,0,0,1-1.69-.57,2.25,2.25,0,0,1-.64-1.67,2.47,2.47,0,0,1,.53-1.74,2,2,0,0,1,1.54-.64,2,2,0,0,1,1.48.51,2,2,0,0,1,.55,1.48v.59l-2.88,0a1.18,1.18,0,0,0,.32.8,1.08,1.08,0,0,0,.81.28,3.34,3.34,0,0,0,.76-.1,3.81,3.81,0,0,0,.75-.28l0,.94a2.89,2.89,0,0,1-.68.25A4.29,4.29,0,0,1,220.87,74.67Zm-.24-3.76a.77.77,0,0,0-.6.26,1.13,1.13,0,0,0-.24.7l1.71,0a1,1,0,0,0-.25-.69A.8.8,0,0,0,220.64,70.91Z"/><path class="cls-3" d="M223.53,68.93q0-.59.65-.61t.67.58a.58.58,0,0,1-.16.44.7.7,0,0,1-.49.17Q223.54,69.52,223.53,68.93Zm1.37,5.59-1.22,0-.08-4.46,1.22,0Z"/><path class="cls-3" d="M227.23,74.48,225.46,70l1.27,0,.91,2.53a4.56,4.56,0,0,1,.19.91h0a4.06,4.06,0,0,1,.16-.92l.81-2.56,1.27,0-1.62,4.49Z"/><path class="cls-3" d="M232.84,74.46a2.3,2.3,0,0,1-1.69-.57,2.25,2.25,0,0,1-.64-1.67,2.47,2.47,0,0,1,.53-1.74,2,2,0,0,1,1.54-.64,2,2,0,0,1,1.48.51,2,2,0,0,1,.55,1.48v.59l-2.88.05a1.18,1.18,0,0,0,.32.8,1.08,1.08,0,0,0,.81.28,3.34,3.34,0,0,0,.76-.1,3.87,3.87,0,0,0,.75-.28l0,.94a2.84,2.84,0,0,1-.68.25A4.33,4.33,0,0,1,232.84,74.46Zm-.24-3.76a.77.77,0,0,0-.6.26,1.13,1.13,0,0,0-.24.7l1.71,0a1,1,0,0,0-.25-.69A.79.79,0,0,0,232.61,70.71Z"/><path class="cls-3" d="M183,79.52a2,2,0,0,1,.41,0l-.07,1.14a1.39,1.39,0,0,0-.36,0,1.29,1.29,0,0,0-.9.32,1.08,1.08,0,0,0-.31.84l0,2.27-1.22,0-.08-4.46.92,0,.19.75h.06a1.68,1.68,0,0,1,.55-.61A1.38,1.38,0,0,1,183,79.52Z"/><path class="cls-3" d="M186.31,84.09a2.3,2.3,0,0,1-1.69-.57,2.25,2.25,0,0,1-.64-1.67,2.48,2.48,0,0,1,.53-1.74,2,2,0,0,1,1.54-.64,2,2,0,0,1,1.48.51,2,2,0,0,1,.55,1.48V82l-2.88,0a1.17,1.17,0,0,0,.32.8,1.08,1.08,0,0,0,.81.28,3.34,3.34,0,0,0,.76-.1,3.79,3.79,0,0,0,.75-.28l0,.94a2.87,2.87,0,0,1-.68.25A4.29,4.29,0,0,1,186.31,84.09Zm-.24-3.76a.77.77,0,0,0-.6.26,1.13,1.13,0,0,0-.24.7l1.71,0a1,1,0,0,0-.25-.69A.8.8,0,0,0,186.07,80.33Z"/><path class="cls-3" d="M192.78,83.9l-.37-1.55-.5-2h0l-.75,3.55-1.31,0-1.35-4.44,1.21,0,.55,2q.13.53.28,1.46h0a8.25,8.25,0,0,1,.12-1l.06-.34.51-2.15,1.34,0,.56,2.13.05.26.07.36c0,.13,0,.25.06.38a2.91,2.91,0,0,1,0,.3h0c0-.19.06-.46.11-.79s.1-.56.12-.68l.5-2,1.19,0-1.21,4.48Z"/><path class="cls-3" d="M198.94,83.79l-.25-.6h0a1.81,1.81,0,0,1-.62.55,2,2,0,0,1-.85.16,1.37,1.37,0,0,1-1-.35,1.41,1.41,0,0,1-.39-1,1.18,1.18,0,0,1,.48-1.06,2.87,2.87,0,0,1,1.49-.4l.77,0v-.2a.61.61,0,0,0-.71-.67,3.16,3.16,0,0,0-1.25.34l-.42-.82a3.63,3.63,0,0,1,1.7-.43,2.13,2.13,0,0,1,1.38.37,1.44,1.44,0,0,1,.5,1.18l.05,3Zm-.39-2.06-.47,0a1.5,1.5,0,0,0-.79.21.6.6,0,0,0-.25.54c0,.34.21.51.6.5a.94.94,0,0,0,.67-.25.85.85,0,0,0,.24-.65Z"/><path class="cls-3" d="M203.46,79.16a2,2,0,0,1,.41,0l-.07,1.14a1.39,1.39,0,0,0-.36,0,1.29,1.29,0,0,0-.9.31,1.08,1.08,0,0,0-.31.84l0,2.27-1.22,0L201,79.29l.92,0,.19.75h.06a1.68,1.68,0,0,1,.55-.61A1.38,1.38,0,0,1,203.46,79.16Z"/><path class="cls-3" d="M206.17,83.74a1.45,1.45,0,0,1-1.25-.59,3.42,3.42,0,0,1-.05-3.4,1.48,1.48,0,0,1,1.25-.63,1.46,1.46,0,0,1,1.3.63h0a5,5,0,0,1-.11-.89l0-1.43,1.22,0,.11,6.21-.93,0-.25-.58h-.05A1.39,1.39,0,0,1,206.17,83.74Zm.41-1a.82.82,0,0,0,.68-.28,1.58,1.58,0,0,0,.22-.92v-.13a1.82,1.82,0,0,0-.24-1,.82.82,0,0,0-.73-.3.72.72,0,0,0-.63.36,1.85,1.85,0,0,0-.21,1,1.74,1.74,0,0,0,.24,1A.74.74,0,0,0,206.58,82.77Z"/><path class="cls-3" d="M213,82.22a1.23,1.23,0,0,1-.46,1.05,2.35,2.35,0,0,1-1.42.38,4.45,4.45,0,0,1-.83-.05,3.18,3.18,0,0,1-.65-.18l0-1a4.21,4.21,0,0,0,.77.25,3.1,3.1,0,0,0,.75.1q.66,0,.66-.39a.32.32,0,0,0-.09-.23,1.35,1.35,0,0,0-.31-.2l-.58-.25a3.71,3.71,0,0,1-.76-.39,1.12,1.12,0,0,1-.36-.42,1.36,1.36,0,0,1-.12-.58,1.06,1.06,0,0,1,.44-.93,2.23,2.23,0,0,1,1.3-.35,3.71,3.71,0,0,1,1.57.32l-.35.88c-.22-.09-.44-.17-.63-.22a1.93,1.93,0,0,0-.6-.08q-.54,0-.53.3a.34.34,0,0,0,.18.28,4.73,4.73,0,0,0,.77.34,3.57,3.57,0,0,1,.77.38,1.16,1.16,0,0,1,.37.42A1.31,1.31,0,0,1,213,82.22Z"/><path class="cls-3" d="M216,77.88q0-.59.65-.61t.67.58a.58.58,0,0,1-.16.44.7.7,0,0,1-.49.17Q216,78.48,216,77.88Zm1.37,5.59-1.22,0L216,79l1.22,0Z"/><path class="cls-3" d="M222.73,83.38l-1.22,0,0-2.61a1.26,1.26,0,0,0-.18-.72.63.63,0,0,0-.55-.23.82.82,0,0,0-.73.35,2.12,2.12,0,0,0-.21,1.14l0,2.1-1.22,0L218.53,79l.93,0,.17.57h.07a1.29,1.29,0,0,1,.55-.5,1.9,1.9,0,0,1,.81-.18,1.56,1.56,0,0,1,1.19.4,1.69,1.69,0,0,1,.42,1.21Z"/><path class="cls-3" d="M194,92.7l-1.48-4.55h0q.1,1.4.11,1.86l0,2.71-1.11,0-.1-5.83,1.68,0,1.46,4.44h0l1.39-4.49,1.68,0,.1,5.83-1.15,0,0-2.76c0-.13,0-.28,0-.45s0-.62,0-1.36h0l-1.42,4.6Z"/><path class="cls-3" d="M204.36,92.52l-1.57,0-2.61-4.37h0q.1,1.17.1,1.67l0,2.75-1.11,0-.1-5.83,1.56,0,2.61,4.33h0q-.08-1.14-.09-1.61l0-2.76,1.11,0Z"/><path class="cls-3" d="M208.08,92.45l-1.24,0-.08-4.8-1.58,0,0-1,4.41-.08,0,1-1.58,0Z"/><path class="cls-3" d="M214.52,88.33a1.78,1.78,0,0,1-.56,1.45,2.52,2.52,0,0,1-1.67.53h-.53l0,2.07-1.24,0-.1-5.83,1.86,0a2.48,2.48,0,0,1,1.62.43A1.67,1.67,0,0,1,214.52,88.33Zm-2.78,1h.41a1.36,1.36,0,0,0,.85-.24.79.79,0,0,0,.27-.66.81.81,0,0,0-.25-.64,1.11,1.11,0,0,0-.75-.2h-.56Z"/><line class="cls-4" x1="137.11" y1="75.99" x2="149.2" y2="74.39"/><circle class="cls-5" cx="137.26" cy="75.97" r="3.06" transform="translate(-8.77 18.63) rotate(-7.53)"/><polygon class="cls-5" points="148.56 78.58 155 73.63 147.49 70.52 148.56 78.58"/><line class="cls-4" x1="356.73" y1="84.33" x2="368.83" y2="82.73"/><circle class="cls-5" cx="356.88" cy="84.31" r="3.06" transform="translate(-7.97 47.47) rotate(-7.53)"/><polygon class="cls-5" points="368.18 86.92 374.62 81.97 367.12 78.86 368.18 86.92"/><circle class="cls-1" cx="306.54" cy="88.91" r="42.54" transform="translate(-10.78 54.56) rotate(-10)"/><path d="M281,78.29a1.51,1.51,0,0,1-.57,1.24,2.48,2.48,0,0,1-1.58.45,3.71,3.71,0,0,1-1.65-.36V78.48a6.79,6.79,0,0,0,1,.37A3,3,0,0,0,279,79a1.06,1.06,0,0,0,.62-.15.53.53,0,0,0,.22-.46.5.5,0,0,0-.1-.31,1,1,0,0,0-.28-.26,7.13,7.13,0,0,0-.75-.4,3.6,3.6,0,0,1-.8-.49,1.82,1.82,0,0,1-.43-.54,1.54,1.54,0,0,1-.16-.72,1.51,1.51,0,0,1,.53-1.22,2.17,2.17,0,0,1,1.45-.44,3.4,3.4,0,0,1,.87.11,6.16,6.16,0,0,1,.86.31l-.4,1a5.85,5.85,0,0,0-.77-.27,2.51,2.51,0,0,0-.6-.08.79.79,0,0,0-.54.16.58.58,0,0,0-.11.71.84.84,0,0,0,.24.24,7.26,7.26,0,0,0,.78.41,3.11,3.11,0,0,1,1.12.79A1.52,1.52,0,0,1,281,78.29Z"/><path d="M285.64,79.93l-.34-1.56-.46-2h0L284,79.92h-1.31l-1.25-4.47h1.21l.51,2q.12.53.25,1.47h0a8.32,8.32,0,0,1,.14-1l.07-.34.56-2.14h1.34l.51,2.14,0,.26.07.37c0,.13,0,.26.06.38a2.9,2.9,0,0,1,0,.3h0q0-.29.13-.79t.13-.68l.54-2h1.19L287,79.93Z"/><path d="M291.8,80l-.23-.61h0a1.81,1.81,0,0,1-.63.54A2,2,0,0,1,290,80a1.37,1.37,0,0,1-1-.37,1.41,1.41,0,0,1-.37-1,1.18,1.18,0,0,1,.5-1,2.87,2.87,0,0,1,1.5-.37l.78,0V77a.61.61,0,0,0-.69-.68,3.16,3.16,0,0,0-1.26.32l-.4-.82a3.63,3.63,0,0,1,1.71-.4,2.14,2.14,0,0,1,1.38.4,1.45,1.45,0,0,1,.47,1.19v3Zm-.35-2.07H291a1.51,1.51,0,0,0-.79.19.6.6,0,0,0-.26.53q0,.51.59.52a.94.94,0,0,0,.68-.24.85.85,0,0,0,.26-.65Z"/><path d="M296.35,80a1.48,1.48,0,0,1-1.23-.58h-.06c0,.37.06.59.06.65v1.81h-1.22l0-6.43h1l.17.58h.06a1.41,1.41,0,0,1,1.27-.66,1.45,1.45,0,0,1,1.23.61,2.82,2.82,0,0,1,.44,1.7,3.35,3.35,0,0,1-.21,1.24,1.74,1.74,0,0,1-.6.8A1.54,1.54,0,0,1,296.35,80ZM296,76.39a.77.77,0,0,0-.66.28,1.59,1.59,0,0,0-.22.92v.13a1.88,1.88,0,0,0,.21,1,.76.76,0,0,0,.67.31q.82,0,.82-1.34a1.93,1.93,0,0,0-.2-1A.69.69,0,0,0,296,76.39Z"/><path d="M303.76,80l-1.39-4.58h0q.07,1.4.07,1.86V80h-1.11l0-5.83H303l1.37,4.47h0l1.48-4.46h1.68l0,5.83h-1.15V77.24c0-.13,0-.28,0-.45s0-.62.06-1.36h0L304.9,80Z"/><path d="M314.18,80H312.6l-2.52-4.42h0q.07,1.17.07,1.67V80H309l0-5.83h1.56l2.52,4.38h0q-.06-1.14-.05-1.61V74.19h1.11Z"/><path d="M317.9,80h-1.24l0-4.81h-1.58v-1l4.41,0v1h-1.58Z"/><path d="M324.42,76.05a1.78,1.78,0,0,1-.59,1.44,2.51,2.51,0,0,1-1.68.49h-.53v2.07h-1.24l0-5.83h1.86a2.47,2.47,0,0,1,1.61.46A1.67,1.67,0,0,1,324.42,76.05Zm-2.8.92H322a1.36,1.36,0,0,0,.86-.22.79.79,0,0,0,.29-.66.81.81,0,0,0-.24-.64,1.1,1.1,0,0,0-.74-.21h-.56Z"/><path d="M329.42,79.2a2.62,2.62,0,0,0,.77-.14V80a2.74,2.74,0,0,1-1.12.2,1.37,1.37,0,0,1-1.06-.37,1.61,1.61,0,0,1-.33-1.11V76.53h-.58V76l.67-.41.35-.94h.78v1h1.25v.91H328.9v2.15a.48.48,0,0,0,.14.38A.57.57,0,0,0,329.42,79.2Z"/><path d="M335.15,77.87a2.4,2.4,0,0,1-.58,1.7,2.09,2.09,0,0,1-1.6.61,2.23,2.23,0,0,1-1.13-.29,1.87,1.87,0,0,1-.75-.81,2.72,2.72,0,0,1-.26-1.23,2.39,2.39,0,0,1,.58-1.7,2.1,2.1,0,0,1,1.61-.6,2.25,2.25,0,0,1,1.13.28,1.86,1.86,0,0,1,.75.8A2.7,2.7,0,0,1,335.15,77.87Zm-3.09,0a1.87,1.87,0,0,0,.21,1,.78.78,0,0,0,.71.34.76.76,0,0,0,.7-.33,1.9,1.9,0,0,0,.22-1,1.85,1.85,0,0,0-.21-1,.92.92,0,0,0-1.41,0A1.85,1.85,0,0,0,332.06,77.86Z"/><path d="M271.67,88.7l-1.39-4.58h0q.07,1.4.07,1.86V88.7H269.2l0-5.83h1.68l1.37,4.47h0l1.48-4.46h1.68l0,5.83h-1.15V85.95c0-.13,0-.28,0-.45s0-.62.06-1.36h0l-1.52,4.56Z"/><path d="M282.08,88.74h-1.57L278,84.31h0Q278,85.48,278,86v2.75h-1.11l0-5.83h1.56L281,87.27h0q-.06-1.14-.05-1.61V82.9h1.11Z"/><path d="M285.8,88.75h-1.24l0-4.81H283v-1l4.41,0v1h-1.58Z"/><path d="M290.28,83.15q0-.59.66-.59t.66.6a.58.58,0,0,1-.17.44.7.7,0,0,1-.5.16Q290.28,83.75,290.28,83.15Zm1.25,5.62h-1.22l0-4.46h1.22Z"/><path d="M295.29,85.24h-1.05v3.55H293V85.23h-.67v-.59l.67-.32V84a1.46,1.46,0,0,1,.38-1.11,1.72,1.72,0,0,1,1.2-.35,3.12,3.12,0,0,1,1.12.19l-.31.89a2.29,2.29,0,0,0-.68-.12.44.44,0,0,0-.38.15.64.64,0,0,0-.12.39v.28h1.05Z"/><path d="M297.47,84.33h1.33l.83,2.51a3.53,3.53,0,0,1,.14.78h0a3.43,3.43,0,0,1,.17-.77l.83-2.51h1.31l-1.9,5a2.18,2.18,0,0,1-.74,1,1.87,1.87,0,0,1-1.12.34,2.84,2.84,0,0,1-.62-.07v-1a2.08,2.08,0,0,0,.48.05.86.86,0,0,0,.57-.2,1.28,1.28,0,0,0,.38-.6l.07-.22Z"/><path d="M306.81,86.59a2.4,2.4,0,0,1-.58,1.7,2.08,2.08,0,0,1-1.6.61,2.24,2.24,0,0,1-1.13-.29,1.89,1.89,0,0,1-.75-.81,2.73,2.73,0,0,1-.26-1.23,2.39,2.39,0,0,1,.58-1.7,2.1,2.1,0,0,1,1.61-.6,2.25,2.25,0,0,1,1.13.28,1.85,1.85,0,0,1,.75.8A2.69,2.69,0,0,1,306.81,86.59Zm-3.09,0a1.87,1.87,0,0,0,.21,1,.78.78,0,0,0,.71.34.76.76,0,0,0,.7-.33,1.9,1.9,0,0,0,.22-1,1.85,1.85,0,0,0-.21-1,.92.92,0,0,0-1.41,0A1.85,1.85,0,0,0,303.72,86.58Z"/><path d="M311,88.84l-.16-.57h-.06a1.29,1.29,0,0,1-.56.48,1.89,1.89,0,0,1-.82.17,1.56,1.56,0,0,1-1.18-.42,1.69,1.69,0,0,1-.39-1.21V84.37H309V87a1.24,1.24,0,0,0,.17.72.62.62,0,0,0,.55.24.82.82,0,0,0,.74-.34,2.12,2.12,0,0,0,.23-1.13v-2.1h1.22l0,4.46Z"/><path d="M317.8,84.32a1.44,1.44,0,0,1,1.23.62,2.82,2.82,0,0,1,.44,1.69,2.78,2.78,0,0,1-.47,1.71,1.61,1.61,0,0,1-2.49,0h-.08l-.21.49h-.93l0-6.21h1.22v1.44q0,.28-.05.88h0A1.41,1.41,0,0,1,317.8,84.32Zm-.39,1a.77.77,0,0,0-.66.27,1.59,1.59,0,0,0-.22.92v.13a1.88,1.88,0,0,0,.21,1,.76.76,0,0,0,.68.31.68.68,0,0,0,.6-.34,1.86,1.86,0,0,0,.23-1,1.77,1.77,0,0,0-.22-1A.7.7,0,0,0,317.41,85.29Z"/><path d="M324.54,86.65a2.4,2.4,0,0,1-.58,1.7,2.08,2.08,0,0,1-1.6.61,2.25,2.25,0,0,1-1.13-.29,1.88,1.88,0,0,1-.75-.81,2.73,2.73,0,0,1-.26-1.23,2.39,2.39,0,0,1,.58-1.7,2.1,2.1,0,0,1,1.61-.6,2.25,2.25,0,0,1,1.13.28,1.86,1.86,0,0,1,.75.8A2.69,2.69,0,0,1,324.54,86.65Zm-3.09,0a1.88,1.88,0,0,0,.21,1,.78.78,0,0,0,.71.34.77.77,0,0,0,.7-.33,1.91,1.91,0,0,0,.22-1,1.84,1.84,0,0,0-.21-1,.92.92,0,0,0-1.41,0A1.84,1.84,0,0,0,321.45,86.64Z"/><path d="M328.7,88.9l-.16-.57h-.06a1.28,1.28,0,0,1-.56.48,1.91,1.91,0,0,1-.82.17,1.56,1.56,0,0,1-1.18-.43,1.69,1.69,0,0,1-.39-1.21V84.43h1.22V87a1.24,1.24,0,0,0,.17.72.62.62,0,0,0,.55.24.82.82,0,0,0,.74-.34,2.12,2.12,0,0,0,.23-1.13v-2.1h1.22l0,4.46Z"/><path d="M334.8,84.46v.62l-.7.18a1.22,1.22,0,0,1,.19.67,1.35,1.35,0,0,1-.5,1.12,2.17,2.17,0,0,1-1.39.4h-.22l-.18,0a.4.4,0,0,0-.19.32q0,.26.67.27h.76a1.73,1.73,0,0,1,1.12.32,1.13,1.13,0,0,1,.38.93,1.37,1.37,0,0,1-.66,1.21,3.4,3.4,0,0,1-1.87.42,2.59,2.59,0,0,1-1.42-.33,1,1,0,0,1-.49-.91,1,1,0,0,1,.25-.67,1.42,1.42,0,0,1,.74-.38.81.81,0,0,1-.33-.26.64.64,0,0,1,0-.81,1.71,1.71,0,0,1,.43-.33,1.2,1.2,0,0,1-.55-.49,1.49,1.49,0,0,1-.2-.79,1.39,1.39,0,0,1,.48-1.13,2.06,2.06,0,0,1,1.36-.39,3.42,3.42,0,0,1,.44,0l.33.05Zm-3.46,5.08a.44.44,0,0,0,.24.4,1.34,1.34,0,0,0,.68.15,2.4,2.4,0,0,0,1-.18.55.55,0,0,0,.37-.49.35.35,0,0,0-.22-.35,1.82,1.82,0,0,0-.68-.1h-.63a1,1,0,0,0-.56.16A.49.49,0,0,0,331.34,89.54Zm.46-3.63a.91.91,0,0,0,.16.58.6.6,0,0,0,.5.21.59.59,0,0,0,.5-.21.93.93,0,0,0,.16-.57q0-.81-.66-.81C332,85.11,331.8,85.38,331.8,85.91Z"/><path d="M339.64,88.94h-1.22V86.33c0-.64-.24-1-.71-1a.82.82,0,0,0-.74.35,2.12,2.12,0,0,0-.23,1.12v2.1h-1.22l0-6.21h1.22V84c0,.1,0,.33,0,.69l0,.36h.06a1.41,1.41,0,0,1,1.3-.65,1.58,1.58,0,0,1,1.19.43,1.67,1.67,0,0,1,.4,1.21Z"/><path d="M342.78,88.06a2.61,2.61,0,0,0,.77-.14v.91a2.74,2.74,0,0,1-1.12.2,1.37,1.37,0,0,1-1.06-.37,1.61,1.61,0,0,1-.33-1.11V85.4h-.58v-.51l.67-.41.35-.94h.78v1h1.25v.91h-1.25v2.15a.48.48,0,0,0,.14.38A.57.57,0,0,0,342.78,88.06Z"/><path d="M281,97.55h-1.22V94.94a1.3,1.3,0,0,0-.16-.72.57.57,0,0,0-.51-.24.73.73,0,0,0-.68.34,2.25,2.25,0,0,0-.22,1.13v2.1H277l0-4.46h.93l.16.57h.07a1.23,1.23,0,0,1,.52-.48,1.68,1.68,0,0,1,.78-.17,1.4,1.4,0,0,1,1.35.66h.11a1.21,1.21,0,0,1,.53-.48,1.78,1.78,0,0,1,.79-.17,1.56,1.56,0,0,1,1.15.39,1.71,1.71,0,0,1,.38,1.25v2.91h-1.22V95a1.3,1.3,0,0,0-.16-.72.57.57,0,0,0-.51-.24.76.76,0,0,0-.67.32,1.81,1.81,0,0,0-.23,1Z"/><path d="M289.08,95.34a2.39,2.39,0,0,1-.58,1.7,2.08,2.08,0,0,1-1.6.61,2.23,2.23,0,0,1-1.13-.29,1.87,1.87,0,0,1-.75-.81,2.71,2.71,0,0,1-.26-1.23,2.38,2.38,0,0,1,.58-1.7,2.09,2.09,0,0,1,1.61-.6,2.24,2.24,0,0,1,1.13.28,1.86,1.86,0,0,1,.75.8A2.7,2.7,0,0,1,289.08,95.34Zm-3.09,0a1.87,1.87,0,0,0,.21,1,.78.78,0,0,0,.71.34.77.77,0,0,0,.7-.33,1.91,1.91,0,0,0,.22-1,1.84,1.84,0,0,0-.21-1,.92.92,0,0,0-1.41,0A1.84,1.84,0,0,0,286,95.33Z"/><path d="M292.59,93.05a2,2,0,0,1,.41,0l-.1,1.14a1.4,1.4,0,0,0-.36,0,1.29,1.29,0,0,0-.91.3,1.08,1.08,0,0,0-.33.84v2.27h-1.22l0-4.46H291l.18.75h.06a1.68,1.68,0,0,1,.56-.6A1.39,1.39,0,0,1,292.59,93.05Z"/><path d="M295.81,97.69a2.3,2.3,0,0,1-1.68-.6,2.24,2.24,0,0,1-.6-1.69,2.47,2.47,0,0,1,.57-1.73,2,2,0,0,1,1.55-.61,2,2,0,0,1,1.47.54,2,2,0,0,1,.52,1.49v.59h-2.88a1.17,1.17,0,0,0,.3.81,1.08,1.08,0,0,0,.8.29,3.37,3.37,0,0,0,.76-.08,3.81,3.81,0,0,0,.75-.27v.94a2.87,2.87,0,0,1-.68.23A4.32,4.32,0,0,1,295.81,97.69Zm-.16-3.76a.77.77,0,0,0-.61.24,1.13,1.13,0,0,0-.25.69h1.71a1,1,0,0,0-.23-.7A.8.8,0,0,0,295.65,93.93Z"/><path d="M302.62,96.74a2.62,2.62,0,0,0,.77-.14v.91a2.72,2.72,0,0,1-1.12.2,1.36,1.36,0,0,1-1.06-.37,1.61,1.61,0,0,1-.33-1.11V94.08h-.58v-.51l.67-.4.35-.94h.78v1h1.25v.91H302.1v2.15a.48.48,0,0,0,.14.38A.57.57,0,0,0,302.62,96.74Z"/><path d="M308.41,97.65h-1.22V95q0-1-.71-1a.82.82,0,0,0-.74.35,2.11,2.11,0,0,0-.23,1.12v2.1h-1.22l0-6.21h1.22V92.7c0,.1,0,.33,0,.69l0,.36h.06a1.41,1.41,0,0,1,1.3-.65,1.58,1.58,0,0,1,1.19.43,1.67,1.67,0,0,1,.4,1.21Z"/><path d="M312.5,97.67l-.23-.61h0a1.81,1.81,0,0,1-.63.53,2,2,0,0,1-.85.15,1.37,1.37,0,0,1-1-.37,1.41,1.41,0,0,1-.37-1,1.18,1.18,0,0,1,.5-1,2.88,2.88,0,0,1,1.5-.37l.78,0v-.2a.61.61,0,0,0-.69-.68,3.15,3.15,0,0,0-1.26.32l-.4-.82a3.64,3.64,0,0,1,1.71-.4,2.13,2.13,0,0,1,1.38.4,1.45,1.45,0,0,1,.47,1.19v3Zm-.35-2.07h-.47a1.5,1.5,0,0,0-.79.19.6.6,0,0,0-.26.53q0,.51.59.52a.94.94,0,0,0,.68-.24.86.86,0,0,0,.26-.65Z"/><path d="M318.72,97.69H317.5V95.08a1.25,1.25,0,0,0-.17-.72.63.63,0,0,0-.55-.24.82.82,0,0,0-.74.34,2.11,2.11,0,0,0-.23,1.13v2.1H314.6l0-4.46h.93l.16.57h.07a1.29,1.29,0,0,1,.56-.49,1.9,1.9,0,0,1,.81-.16,1.55,1.55,0,0,1,1.18.43,1.68,1.68,0,0,1,.4,1.22Z"/><path d="M324.83,97.71H323.6V93.77l0-.61c-.21.2-.35.34-.43.4l-.67.54-.59-.75,1.89-1.49h1Z"/><path d="M330.5,94.81a4.07,4.07,0,0,1-.51,2.26,1.74,1.74,0,0,1-1.55.73,1.71,1.71,0,0,1-1.52-.76,4,4,0,0,1-.51-2.24,4.11,4.11,0,0,1,.51-2.27,1.94,1.94,0,0,1,3.06,0A4,4,0,0,1,330.5,94.81Zm-2.85,0a4.59,4.59,0,0,0,.18,1.54.65.65,0,0,0,1.25,0,6.24,6.24,0,0,0,0-3.08.65.65,0,0,0-.62-.47.64.64,0,0,0-.62.47A4.49,4.49,0,0,0,327.65,94.8Z"/><path d="M332.6,95.31l.53-.68,1.25-1.35h1.37L334,95.22l1.87,2.53h-1.4l-1.28-1.81-.52.42v1.39h-1.22l0-6.21h1.22V94.3l-.07,1Z"/><path d="M283.2,106.38l-1.39-4.58h0q.07,1.4.07,1.87v2.71h-1.11l0-5.83h1.68L283.8,105h0l1.48-4.46H287l0,5.83h-1.15v-2.76c0-.13,0-.28,0-.45s0-.62.06-1.36h0l-1.52,4.56Z"/><path d="M293.61,106.42H292L289.52,102h0q.07,1.17.07,1.67v2.75h-1.11l0-5.83H290l2.52,4.38h0q-.06-1.14-.05-1.61v-2.76h1.11Z"/><path d="M297.33,106.43h-1.24l0-4.81h-1.58v-1l4.41,0v1h-1.58Z"/><path d="M303.86,102.44a1.78,1.78,0,0,1-.59,1.44,2.52,2.52,0,0,1-1.68.49h-.53v2.07h-1.24l0-5.83h1.86a2.48,2.48,0,0,1,1.61.46A1.67,1.67,0,0,1,303.86,102.44Zm-2.8.92h.41a1.37,1.37,0,0,0,.86-.22.79.79,0,0,0,.28-.66.81.81,0,0,0-.23-.64,1.12,1.12,0,0,0-.74-.21h-.56Z"/><path d="M308.86,105.58a2.67,2.67,0,0,0,.77-.14v.91a2.74,2.74,0,0,1-1.12.2,1.37,1.37,0,0,1-1.06-.37,1.61,1.61,0,0,1-.33-1.11v-2.15h-.58v-.51l.67-.4.35-.94h.78v1h1.25v.91h-1.25v2.15a.48.48,0,0,0,.14.38A.58.58,0,0,0,308.86,105.58Z"/><path d="M314.58,104.26A2.39,2.39,0,0,1,314,106a2.08,2.08,0,0,1-1.6.61,2.24,2.24,0,0,1-1.13-.29,1.88,1.88,0,0,1-.75-.81,2.72,2.72,0,0,1-.26-1.23,2.39,2.39,0,0,1,.58-1.7,2.1,2.1,0,0,1,1.61-.6,2.24,2.24,0,0,1,1.13.28,1.85,1.85,0,0,1,.75.8A2.68,2.68,0,0,1,314.58,104.26Zm-3.09,0a1.87,1.87,0,0,0,.21,1,.78.78,0,0,0,.71.34.77.77,0,0,0,.7-.33,1.91,1.91,0,0,0,.22-1,1.84,1.84,0,0,0-.21-1,.92.92,0,0,0-1.41,0A1.84,1.84,0,0,0,311.5,104.24Z"/><path d="M316.76,104.07l.53-.68,1.25-1.35h1.37L318.14,104l1.87,2.53h-1.4l-1.28-1.81-.52.42v1.39h-1.22l0-6.21h1.22v2.77l-.07,1Z"/><path d="M322.67,106.6A2.3,2.3,0,0,1,321,106a2.25,2.25,0,0,1-.6-1.69,2.47,2.47,0,0,1,.57-1.73,2,2,0,0,1,1.55-.61,2,2,0,0,1,1.47.54,2,2,0,0,1,.52,1.49v.59h-2.88a1.17,1.17,0,0,0,.3.81,1.08,1.08,0,0,0,.8.29,3.32,3.32,0,0,0,.76-.08,4,4,0,0,0,.75-.27v.94a2.86,2.86,0,0,1-.68.23A4.26,4.26,0,0,1,322.67,106.6Zm-.16-3.76a.77.77,0,0,0-.61.24,1.13,1.13,0,0,0-.25.69h1.71a1,1,0,0,0-.23-.7A.79.79,0,0,0,322.51,102.84Z"/><path d="M329.6,106.55h-1.22v-2.61a1.26,1.26,0,0,0-.17-.72.63.63,0,0,0-.55-.24.83.83,0,0,0-.74.34,2.12,2.12,0,0,0-.23,1.13v2.1h-1.22l0-4.46h.93l.16.57h.07a1.29,1.29,0,0,1,.56-.49A1.91,1.91,0,0,1,328,102a1.56,1.56,0,0,1,1.18.42,1.69,1.69,0,0,1,.4,1.22Z"/><path d="M334,105.24a1.23,1.23,0,0,1-.48,1,2.35,2.35,0,0,1-1.43.35,4.43,4.43,0,0,1-.83-.07,3.13,3.13,0,0,1-.64-.2v-1a4.25,4.25,0,0,0,.76.27,3.12,3.12,0,0,0,.75.11q.66,0,.66-.38a.32.32,0,0,0-.09-.23,1.28,1.28,0,0,0-.3-.21l-.57-.27a3.62,3.62,0,0,1-.76-.4,1.13,1.13,0,0,1-.35-.42,1.38,1.38,0,0,1-.11-.59,1.06,1.06,0,0,1,.46-.92,2.25,2.25,0,0,1,1.31-.32,3.7,3.7,0,0,1,1.57.36l-.37.88a6.66,6.66,0,0,0-.63-.24,2,2,0,0,0-.59-.09c-.36,0-.54.1-.54.29a.34.34,0,0,0,.17.28,4.81,4.81,0,0,0,.76.36,3.49,3.49,0,0,1,.77.4,1.16,1.16,0,0,1,.36.42A1.31,1.31,0,0,1,334,105.24Z"/><circle class="cls-2" cx="419.97" cy="76.91" r="42.54" transform="translate(-6.97 74.07) rotate(-10)"/><path class="cls-3" d="M386.12,70l.07-5.83,1.24,0L387.38,69l2.37,0v1Z"/><path class="cls-3" d="M393.48,70.07l-.23-.61h0a1.81,1.81,0,0,1-.64.53,2.06,2.06,0,0,1-.85.14,1.37,1.37,0,0,1-1-.38,1.41,1.41,0,0,1-.36-1.05,1.18,1.18,0,0,1,.51-1,2.88,2.88,0,0,1,1.5-.35h.78v-.2a.61.61,0,0,0-.69-.69,3.17,3.17,0,0,0-1.26.31l-.39-.83a3.61,3.61,0,0,1,1.71-.38,2.13,2.13,0,0,1,1.37.41,1.45,1.45,0,0,1,.46,1.19l0,3ZM393.15,68h-.47a1.52,1.52,0,0,0-.79.18.6.6,0,0,0-.27.53q0,.52.58.52a.94.94,0,0,0,.68-.23.86.86,0,0,0,.26-.64Z"/><path class="cls-3" d="M398.74,70.14l-.16-.57h-.06A1.28,1.28,0,0,1,398,70a1.89,1.89,0,0,1-.82.16,1.55,1.55,0,0,1-1.18-.44,1.7,1.7,0,0,1-.38-1.22l0-2.91,1.22,0,0,2.61A1.25,1.25,0,0,0,397,69a.63.63,0,0,0,.54.25.82.82,0,0,0,.74-.33,2.12,2.12,0,0,0,.24-1.13l0-2.1,1.22,0-.06,4.46Z"/><path class="cls-3" d="M405.07,70.22l-1.22,0,0-2.61a1.26,1.26,0,0,0-.16-.73.63.63,0,0,0-.54-.25.82.82,0,0,0-.74.33,2.12,2.12,0,0,0-.24,1.13l0,2.1-1.22,0,.06-4.46h.93l.16.57h.07a1.26,1.26,0,0,1,.57-.48,1.87,1.87,0,0,1,.82-.16,1.55,1.55,0,0,1,1.17.44,1.69,1.69,0,0,1,.39,1.22Z"/><path class="cls-3" d="M408.14,70.34q-2.08,0-2.05-2.31a2.43,2.43,0,0,1,.59-1.73,2.13,2.13,0,0,1,1.63-.58,3.1,3.1,0,0,1,1.38.32l-.37.94-.53-.2a1.67,1.67,0,0,0-.49-.08c-.63,0-1,.44-1,1.34s.3,1.31.93,1.32a2.14,2.14,0,0,0,.65-.08,2.34,2.34,0,0,0,.6-.29v1a2,2,0,0,1-.6.25A3.47,3.47,0,0,1,408.14,70.34Z"/><path class="cls-3" d="M414.65,70.35h-1.22l0-2.61q0-1-.7-1a.82.82,0,0,0-.74.34,2.12,2.12,0,0,0-.24,1.12l0,2.1-1.22,0,.08-6.21,1.22,0,0,1.26c0,.1,0,.33,0,.69l0,.36h.06a1.41,1.41,0,0,1,1.3-.64,1.59,1.59,0,0,1,1.19.44,1.68,1.68,0,0,1,.39,1.22Z"/><path class="cls-3" d="M417.44,65.92l1.33,0,.81,2.52a3.5,3.5,0,0,1,.14.78h0a3.48,3.48,0,0,1,.18-.77l.86-2.5,1.31,0-2,5a2.18,2.18,0,0,1-.75,1,1.87,1.87,0,0,1-1.13.33,2.79,2.79,0,0,1-.62-.08v-1a2.24,2.24,0,0,0,.48.06.87.87,0,0,0,.57-.19,1.27,1.27,0,0,0,.38-.59l.07-.22Z"/><path class="cls-3" d="M426.75,68.26a2.39,2.39,0,0,1-.6,1.7,2.08,2.08,0,0,1-1.61.6,2.24,2.24,0,0,1-1.13-.3,1.87,1.87,0,0,1-.74-.82,2.71,2.71,0,0,1-.25-1.23,2.37,2.37,0,0,1,.59-1.69,2.09,2.09,0,0,1,1.61-.59,2.27,2.27,0,0,1,1.13.29,1.86,1.86,0,0,1,.74.81A2.69,2.69,0,0,1,426.75,68.26Zm-3.09,0a1.87,1.87,0,0,0,.2,1,.78.78,0,0,0,.7.35.76.76,0,0,0,.7-.33,1.91,1.91,0,0,0,.23-1,1.85,1.85,0,0,0-.2-1,.92.92,0,0,0-1.41,0A1.84,1.84,0,0,0,423.67,68.23Z"/><path class="cls-3" d="M430.89,70.56l-.16-.57h-.06a1.28,1.28,0,0,1-.56.47,1.91,1.91,0,0,1-.82.16,1.56,1.56,0,0,1-1.18-.44,1.7,1.7,0,0,1-.38-1.22l0-2.91,1.22,0,0,2.61a1.25,1.25,0,0,0,.16.73.63.63,0,0,0,.54.25.82.82,0,0,0,.74-.33,2.12,2.12,0,0,0,.24-1.13l0-2.1,1.22,0-.06,4.46Z"/><path class="cls-3" d="M435.65,66.07a2,2,0,0,1,.41,0L436,67.25a1.37,1.37,0,0,0-.36,0,1.29,1.29,0,0,0-.91.29,1.09,1.09,0,0,0-.34.83l0,2.27-1.22,0,.06-4.46h.92l.17.75h.06a1.68,1.68,0,0,1,.57-.6A1.38,1.38,0,0,1,435.65,66.07Z"/><path class="cls-3" d="M443,68.48a2.4,2.4,0,0,1-.6,1.7,2.08,2.08,0,0,1-1.61.59,2.24,2.24,0,0,1-1.13-.3,1.88,1.88,0,0,1-.74-.82,2.72,2.72,0,0,1-.25-1.23,2.38,2.38,0,0,1,.59-1.69,2.09,2.09,0,0,1,1.61-.58,2.23,2.23,0,0,1,1.13.29,1.86,1.86,0,0,1,.74.81A2.69,2.69,0,0,1,443,68.48Zm-3.09,0a1.87,1.87,0,0,0,.2,1,.78.78,0,0,0,.7.35.77.77,0,0,0,.7-.33,1.91,1.91,0,0,0,.23-1,1.85,1.85,0,0,0-.2-1,.92.92,0,0,0-1.41,0A1.84,1.84,0,0,0,439.93,68.44Z"/><path class="cls-3" d="M447.66,70.77l-.32-1.57-.44-2h0L446,70.75l-1.31,0-1.21-4.48,1.21,0,.49,2c.08.36.16.84.23,1.47h0a8.17,8.17,0,0,1,.15-1l.07-.34.58-2.13,1.34,0,.49,2.15,0,.26.06.37c0,.13,0,.26.05.38s0,.22,0,.3h0c0-.19.07-.45.14-.79s.11-.56.14-.67l.56-2,1.19,0L449,70.79Z"/><path class="cls-3" d="M455.11,70.87l-1.22,0,0-2.61a1.27,1.27,0,0,0-.16-.73.63.63,0,0,0-.54-.25.83.83,0,0,0-.74.33,2.11,2.11,0,0,0-.24,1.13l0,2.1-1.22,0,.06-4.46H452l.16.57h.07a1.29,1.29,0,0,1,.57-.48,1.92,1.92,0,0,1,.82-.16,1.56,1.56,0,0,1,1.17.44,1.69,1.69,0,0,1,.39,1.22Z"/><path class="cls-3" d="M391.5,78.87l-1.22,0,0-2.61a1.31,1.31,0,0,0-.15-.73.57.57,0,0,0-.5-.25.74.74,0,0,0-.68.33,2.25,2.25,0,0,0-.23,1.13l0,2.1-1.22,0,.06-4.46h.93l.16.57h.07a1.23,1.23,0,0,1,.52-.47,1.69,1.69,0,0,1,.78-.16,1.4,1.4,0,0,1,1.35.67h.11a1.2,1.2,0,0,1,.53-.48,1.75,1.75,0,0,1,.79-.16,1.56,1.56,0,0,1,1.14.4,1.71,1.71,0,0,1,.37,1.25l0,2.91-1.22,0,0-2.61a1.31,1.31,0,0,0-.15-.73.57.57,0,0,0-.5-.25.76.76,0,0,0-.67.31,1.82,1.82,0,0,0-.23,1Z"/><path class="cls-3" d="M398.37,79l-.23-.61h0a1.82,1.82,0,0,1-.64.53,2,2,0,0,1-.85.14,1.37,1.37,0,0,1-1-.38,1.41,1.41,0,0,1-.36-1.05,1.18,1.18,0,0,1,.51-1,2.89,2.89,0,0,1,1.5-.35H398V76a.61.61,0,0,0-.69-.69,3.14,3.14,0,0,0-1.26.31l-.39-.83a3.64,3.64,0,0,1,1.71-.38,2.14,2.14,0,0,1,1.37.41,1.44,1.44,0,0,1,.46,1.2l0,3ZM398,76.89h-.47a1.51,1.51,0,0,0-.79.18.6.6,0,0,0-.27.53c0,.34.19.52.58.52a.94.94,0,0,0,.68-.23.85.85,0,0,0,.26-.64Z"/><path class="cls-3" d="M403.6,77.7a1.23,1.23,0,0,1-.49,1,2.36,2.36,0,0,1-1.43.34,4.49,4.49,0,0,1-.83-.08,3.18,3.18,0,0,1-.64-.2v-1a4.26,4.26,0,0,0,.76.28,3,3,0,0,0,.75.12q.66,0,.67-.37a.32.32,0,0,0-.09-.23,1.23,1.23,0,0,0-.3-.21c-.14-.08-.33-.17-.57-.27a3.57,3.57,0,0,1-.75-.41,1.13,1.13,0,0,1-.35-.42,1.37,1.37,0,0,1-.1-.59,1.06,1.06,0,0,1,.47-.91,2.25,2.25,0,0,1,1.31-.31,3.73,3.73,0,0,1,1.56.37l-.38.87a6.64,6.64,0,0,0-.62-.24,2,2,0,0,0-.59-.1c-.36,0-.54.09-.54.28a.34.34,0,0,0,.17.29,4.6,4.6,0,0,0,.75.37,3.52,3.52,0,0,1,.76.41,1.14,1.14,0,0,1,.35.43A1.3,1.3,0,0,1,403.6,77.7Z"/><path class="cls-3" d="M406.42,78.17a2.58,2.58,0,0,0,.77-.13v.91a2.76,2.76,0,0,1-1.12.19,1.37,1.37,0,0,1-1.06-.38,1.6,1.6,0,0,1-.32-1.11l0-2.15h-.58V75l.68-.4.36-.94H406v.95l1.25,0v.91l-1.25,0,0,2.15A.48.48,0,0,0,406,78,.58.58,0,0,0,406.42,78.17Z"/><path class="cls-3" d="M410.1,79.19a2.29,2.29,0,0,1-1.68-.62,2.25,2.25,0,0,1-.58-1.69,2.47,2.47,0,0,1,.58-1.73,2,2,0,0,1,1.56-.59,2,2,0,0,1,1.47.56,2,2,0,0,1,.51,1.5v.59l-2.88,0a1.17,1.17,0,0,0,.3.81,1.07,1.07,0,0,0,.8.3,3.35,3.35,0,0,0,.76-.07,3.78,3.78,0,0,0,.75-.26v.94a2.8,2.8,0,0,1-.69.23A4.2,4.2,0,0,1,410.1,79.19ZM410,75.43a.77.77,0,0,0-.61.24,1.14,1.14,0,0,0-.26.69l1.71,0a1,1,0,0,0-.23-.7A.8.8,0,0,0,410,75.43Z"/><path class="cls-3" d="M415.46,74.63a2,2,0,0,1,.41,0l-.11,1.14a1.38,1.38,0,0,0-.36,0,1.3,1.3,0,0,0-.91.29,1.08,1.08,0,0,0-.34.83l0,2.27-1.22,0,.06-4.46h.92l.17.75h.06a1.67,1.67,0,0,1,.57-.6A1.39,1.39,0,0,1,415.46,74.63Z"/><path class="cls-3" d="M420.74,79.25l-1.22,0,0-2.61a1.27,1.27,0,0,0-.16-.73.63.63,0,0,0-.54-.25.83.83,0,0,0-.74.33,2.11,2.11,0,0,0-.24,1.13l0,2.1-1.22,0,.06-4.46h.93l.16.57h.07a1.29,1.29,0,0,1,.57-.48,1.91,1.91,0,0,1,.81-.16,1.56,1.56,0,0,1,1.18.44,1.69,1.69,0,0,1,.39,1.22Z"/><path class="cls-3" d="M426.07,77.08a2.39,2.39,0,0,1-.6,1.69,2.08,2.08,0,0,1-1.61.6,2.25,2.25,0,0,1-1.13-.3,1.88,1.88,0,0,1-.74-.82,2.72,2.72,0,0,1-.25-1.23,2.39,2.39,0,0,1,.59-1.69,2.1,2.1,0,0,1,1.61-.58,2.25,2.25,0,0,1,1.13.29,1.87,1.87,0,0,1,.74.81A2.69,2.69,0,0,1,426.07,77.08ZM423,77a1.87,1.87,0,0,0,.2,1,.77.77,0,0,0,.7.35.76.76,0,0,0,.7-.33,1.9,1.9,0,0,0,.23-1,1.84,1.84,0,0,0-.2-1,.92.92,0,0,0-1.41,0A1.84,1.84,0,0,0,423,77Z"/><path class="cls-3" d="M428.46,79.43a1.45,1.45,0,0,1-1.23-.63,3.42,3.42,0,0,1,.05-3.4,1.49,1.49,0,0,1,1.27-.6,1.45,1.45,0,0,1,1.28.67h0a5,5,0,0,1-.08-.89l0-1.43,1.22,0L431,79.38H430l-.23-.58h-.05A1.4,1.4,0,0,1,428.46,79.43Zm.44-1a.82.82,0,0,0,.69-.26,1.56,1.56,0,0,0,.25-.92v-.13a1.82,1.82,0,0,0-.21-1,.82.82,0,0,0-.72-.32.72.72,0,0,0-.64.34,1.84,1.84,0,0,0-.24,1,1.74,1.74,0,0,0,.21,1A.74.74,0,0,0,428.9,78.46Z"/><path class="cls-3" d="M434.24,79.5a2.3,2.3,0,0,1-1.68-.62,2.25,2.25,0,0,1-.58-1.69,2.47,2.47,0,0,1,.58-1.73,2,2,0,0,1,1.56-.59,2,2,0,0,1,1.47.56,2,2,0,0,1,.51,1.5v.59l-2.88,0a1.17,1.17,0,0,0,.3.81,1.08,1.08,0,0,0,.8.3,3.45,3.45,0,0,0,.76-.07,3.91,3.91,0,0,0,.75-.26v.94a2.88,2.88,0,0,1-.69.23A4.46,4.46,0,0,1,434.24,79.5Zm-.12-3.76a.77.77,0,0,0-.61.24,1.13,1.13,0,0,0-.26.69l1.71,0a1,1,0,0,0-.23-.7A.8.8,0,0,0,434.12,75.74Z"/><path class="cls-3" d="M442,79.52l-.23-.61h0a1.8,1.8,0,0,1-.64.53,2.06,2.06,0,0,1-.85.14,1.37,1.37,0,0,1-1-.38,1.41,1.41,0,0,1-.36-1.05,1.18,1.18,0,0,1,.51-1,2.89,2.89,0,0,1,1.5-.35h.78v-.2a.61.61,0,0,0-.69-.69,3.14,3.14,0,0,0-1.26.31l-.39-.83a3.64,3.64,0,0,1,1.71-.38,2.13,2.13,0,0,1,1.37.41,1.45,1.45,0,0,1,.46,1.2l0,3Zm-.33-2.07h-.47a1.5,1.5,0,0,0-.79.18.6.6,0,0,0-.27.53q0,.52.58.52a.94.94,0,0,0,.68-.23.86.86,0,0,0,.26-.64Z"/><path class="cls-3" d="M448.23,79.6l-1.22,0L447,77a1.27,1.27,0,0,0-.16-.73.62.62,0,0,0-.54-.25.82.82,0,0,0-.74.33,2.11,2.11,0,0,0-.24,1.13l0,2.1-1.22,0,.06-4.46h.93l.16.57h.07a1.29,1.29,0,0,1,.57-.48,1.91,1.91,0,0,1,.81-.16,1.56,1.56,0,0,1,1.18.44,1.69,1.69,0,0,1,.39,1.22Z"/><path class="cls-3" d="M450.89,79.72a1.45,1.45,0,0,1-1.23-.63,3.42,3.42,0,0,1,.05-3.4,1.48,1.48,0,0,1,1.27-.6,1.45,1.45,0,0,1,1.28.67h0a5,5,0,0,1-.08-.89l0-1.43,1.22,0-.08,6.21h-.93l-.23-.58h-.05A1.4,1.4,0,0,1,450.89,79.72Zm.44-1a.82.82,0,0,0,.69-.26,1.56,1.56,0,0,0,.25-.92v-.13a1.82,1.82,0,0,0-.21-1,.82.82,0,0,0-.72-.32.72.72,0,0,0-.64.34,1.85,1.85,0,0,0-.24,1,1.74,1.74,0,0,0,.21,1A.75.75,0,0,0,451.33,78.75Z"/><path class="cls-3" d="M391,83.14a2,2,0,0,1,.41,0l-.11,1.14a1.45,1.45,0,0,0-.36,0,1.3,1.3,0,0,0-.91.29,1.09,1.09,0,0,0-.34.83l0,2.27-1.22,0,.06-4.46h.92l.17.75h.06a1.7,1.7,0,0,1,.57-.6A1.39,1.39,0,0,1,391,83.14Z"/><path class="cls-3" d="M394.16,87.8a2.3,2.3,0,0,1-1.68-.62,2.25,2.25,0,0,1-.58-1.69,2.47,2.47,0,0,1,.58-1.73,2,2,0,0,1,1.56-.59,2,2,0,0,1,1.47.56,2,2,0,0,1,.51,1.5v.59l-2.88,0a1.17,1.17,0,0,0,.3.81,1.08,1.08,0,0,0,.8.3,3.44,3.44,0,0,0,.76-.07,3.89,3.89,0,0,0,.75-.26v.94a2.78,2.78,0,0,1-.69.23A4.21,4.21,0,0,1,394.16,87.8ZM394,84a.77.77,0,0,0-.61.24,1.13,1.13,0,0,0-.26.69l1.71,0a1,1,0,0,0-.23-.7A.8.8,0,0,0,394,84Z"/><path class="cls-3" d="M398.78,87.86q-2.08,0-2.05-2.31a2.43,2.43,0,0,1,.59-1.73,2.13,2.13,0,0,1,1.63-.58,3.1,3.1,0,0,1,1.38.32l-.37.94-.53-.2a1.79,1.79,0,0,0-.49-.08q-.95,0-1,1.34t.93,1.32a2.14,2.14,0,0,0,.65-.08,2.34,2.34,0,0,0,.6-.29v1a2,2,0,0,1-.6.25A3.47,3.47,0,0,1,398.78,87.86Z"/><path class="cls-3" d="M403.19,87.92a2.31,2.31,0,0,1-1.68-.62,2.25,2.25,0,0,1-.58-1.69,2.47,2.47,0,0,1,.58-1.73,2,2,0,0,1,1.56-.59,2,2,0,0,1,1.47.56,2,2,0,0,1,.51,1.5v.59l-2.88,0a1.18,1.18,0,0,0,.3.82,1.09,1.09,0,0,0,.8.3,3.34,3.34,0,0,0,.76-.07,3.88,3.88,0,0,0,.75-.26v.94a2.86,2.86,0,0,1-.69.23A4.46,4.46,0,0,1,403.19,87.92Zm-.12-3.76a.77.77,0,0,0-.61.24,1.14,1.14,0,0,0-.26.69l1.71,0a1,1,0,0,0-.23-.7A.8.8,0,0,0,403.06,84.16Z"/><path class="cls-3" d="M407.21,87.89l-1.22,0,.06-4.46,1.22,0ZM406,82.26q0-.59.67-.59c.44,0,.66.21.66.6a.58.58,0,0,1-.17.44.71.71,0,0,1-.5.15Q406,82.86,406,82.26Z"/><path class="cls-3" d="M409.55,87.92l-1.64-4.48,1.27,0L410,86a4.57,4.57,0,0,1,.17.92h0a4,4,0,0,1,.19-.91l.89-2.53,1.27,0-1.76,4.44Z"/><path class="cls-3" d="M415.16,88.08a2.3,2.3,0,0,1-1.68-.61,2.25,2.25,0,0,1-.58-1.69,2.47,2.47,0,0,1,.58-1.73,2,2,0,0,1,1.56-.59,2,2,0,0,1,1.47.56,2,2,0,0,1,.51,1.5v.59l-2.88,0a1.17,1.17,0,0,0,.3.81,1.08,1.08,0,0,0,.8.3,3.34,3.34,0,0,0,.76-.07,3.78,3.78,0,0,0,.75-.26v.94A2.78,2.78,0,0,1,416,88,4.21,4.21,0,0,1,415.16,88.08ZM415,84.31a.77.77,0,0,0-.61.24,1.14,1.14,0,0,0-.26.69l1.71,0a1,1,0,0,0-.23-.7A.8.8,0,0,0,415,84.31Z"/><path class="cls-3" d="M422.64,83.55a2.11,2.11,0,0,1,.41,0l-.11,1.14a1.37,1.37,0,0,0-.36,0,1.29,1.29,0,0,0-.91.29,1.08,1.08,0,0,0-.34.83l0,2.27-1.22,0,.06-4.46h.92l.17.75h.06a1.68,1.68,0,0,1,.57-.6A1.39,1.39,0,0,1,422.64,83.55Z"/><path class="cls-3" d="M425.82,88.21a2.31,2.31,0,0,1-1.68-.62,2.25,2.25,0,0,1-.58-1.69,2.47,2.47,0,0,1,.58-1.73,2,2,0,0,1,1.56-.59,2,2,0,0,1,1.47.56,2,2,0,0,1,.51,1.5v.59l-2.88,0a1.18,1.18,0,0,0,.3.82,1.08,1.08,0,0,0,.8.3,3.34,3.34,0,0,0,.76-.07,3.88,3.88,0,0,0,.75-.26v.94a2.86,2.86,0,0,1-.69.23A4.46,4.46,0,0,1,425.82,88.21Zm-.12-3.76a.78.78,0,0,0-.61.24,1.13,1.13,0,0,0-.26.69l1.71,0a1,1,0,0,0-.23-.7A.8.8,0,0,0,425.7,84.45Z"/><path class="cls-3" d="M432.3,88.22,432,86.65l-.44-2h0l-.86,3.52-1.31,0-1.21-4.48,1.21,0,.49,2q.12.53.23,1.47h0a8.17,8.17,0,0,1,.15-1l.07-.34.58-2.13,1.34,0,.49,2.15,0,.26.06.37c0,.13,0,.26.05.38s0,.22,0,.3h0c0-.19.07-.45.14-.79s.11-.56.14-.67l.56-2H435l-1.34,4.45Z"/><path class="cls-3" d="M438.46,88.3l-.23-.61h0a1.81,1.81,0,0,1-.64.53,2.07,2.07,0,0,1-.85.14,1.37,1.37,0,0,1-1-.38,1.41,1.41,0,0,1-.36-1,1.18,1.18,0,0,1,.51-1,2.87,2.87,0,0,1,1.5-.35h.78v-.2a.61.61,0,0,0-.69-.69,3.14,3.14,0,0,0-1.26.31l-.39-.83a3.62,3.62,0,0,1,1.71-.38,2.13,2.13,0,0,1,1.37.41,1.45,1.45,0,0,1,.46,1.2l0,3Zm-.33-2.07h-.47a1.49,1.49,0,0,0-.79.18.6.6,0,0,0-.27.53q0,.51.58.52a.93.93,0,0,0,.68-.23.85.85,0,0,0,.26-.64Z"/><path class="cls-3" d="M443.11,83.81a1.86,1.86,0,0,1,.41,0L443.42,85a1.37,1.37,0,0,0-.36,0,1.29,1.29,0,0,0-.91.29,1.09,1.09,0,0,0-.34.83l0,2.27-1.22,0,.06-4.46h.92l.17.75h.06a1.69,1.69,0,0,1,.57-.6A1.39,1.39,0,0,1,443.11,83.81Z"/><path class="cls-3" d="M445.69,88.47a1.45,1.45,0,0,1-1.23-.63,3.42,3.42,0,0,1,.05-3.4,1.48,1.48,0,0,1,1.27-.6,1.46,1.46,0,0,1,1.28.67h0a5,5,0,0,1-.08-.89l0-1.43,1.22,0-.08,6.21h-.93l-.23-.58H447A1.39,1.39,0,0,1,445.69,88.47Zm.44-1a.82.82,0,0,0,.69-.26,1.57,1.57,0,0,0,.25-.92v-.13a1.82,1.82,0,0,0-.21-1,.82.82,0,0,0-.72-.32.72.72,0,0,0-.64.34,1.85,1.85,0,0,0-.24,1,1.75,1.75,0,0,0,.21,1A.74.74,0,0,0,446.13,87.51Z"/><path class="cls-3" d="M452.58,87.16a1.23,1.23,0,0,1-.49,1,2.36,2.36,0,0,1-1.43.34,4.34,4.34,0,0,1-.83-.08,3.06,3.06,0,0,1-.64-.2v-1a4.29,4.29,0,0,0,.76.28,3.11,3.11,0,0,0,.75.12q.66,0,.67-.37a.32.32,0,0,0-.08-.23,1.24,1.24,0,0,0-.3-.21l-.57-.27a3.69,3.69,0,0,1-.75-.41,1.11,1.11,0,0,1-.34-.43,1.37,1.37,0,0,1-.1-.59,1.06,1.06,0,0,1,.47-.91,2.25,2.25,0,0,1,1.31-.31,3.72,3.72,0,0,1,1.56.37l-.38.87a6.59,6.59,0,0,0-.62-.24,1.9,1.9,0,0,0-.59-.1c-.36,0-.54.09-.54.28a.34.34,0,0,0,.17.29,4.78,4.78,0,0,0,.76.36,3.52,3.52,0,0,1,.76.41,1.17,1.17,0,0,1,.35.43A1.31,1.31,0,0,1,452.58,87.16Z"/><path class="cls-3" d="M406.59,96.71l-1.22,0,.06-4.46,1.22,0Zm-1.2-5.63q0-.59.67-.59t.66.6a.58.58,0,0,1-.17.44.69.69,0,0,1-.5.15Q405.39,91.67,405.4,91.07Z"/><path class="cls-3" d="M412,96.78l-1.22,0,0-2.61a1.26,1.26,0,0,0-.16-.73.62.62,0,0,0-.54-.25.82.82,0,0,0-.74.33,2.12,2.12,0,0,0-.24,1.13l0,2.1-1.22,0,.06-4.46h.93l.16.57h.07a1.29,1.29,0,0,1,.57-.48,1.91,1.91,0,0,1,.81-.16,1.56,1.56,0,0,1,1.18.44,1.68,1.68,0,0,1,.39,1.22Z"/><path class="cls-3" d="M417.72,93.57l2.31,0,0,3a6.38,6.38,0,0,1-1.06.24,6.68,6.68,0,0,1-1,.06,2.56,2.56,0,0,1-2-.8,3.23,3.23,0,0,1-.67-2.24,2.94,2.94,0,0,1,.84-2.19,3.07,3.07,0,0,1,2.25-.76,4.33,4.33,0,0,1,1.73.38l-.42,1A3,3,0,0,0,418.3,92a1.64,1.64,0,0,0-1.29.52,2.09,2.09,0,0,0-.5,1.44,2.32,2.32,0,0,0,.37,1.45,1.34,1.34,0,0,0,1.12.52,4.16,4.16,0,0,0,.79-.07l0-1.22H417.7Z"/><path class="cls-3" d="M426.71,94a3.17,3.17,0,0,1-.75,2.22,3.11,3.11,0,0,1-4.12-.05,3.18,3.18,0,0,1-.69-2.24,3.14,3.14,0,0,1,.75-2.22A2.68,2.68,0,0,1,424,91a2.66,2.66,0,0,1,2,.8A3.17,3.17,0,0,1,426.71,94ZM422.45,94a2.44,2.44,0,0,0,.35,1.48,1.29,1.29,0,0,0,1.1.51q1.48,0,1.51-1.95T424,92a1.31,1.31,0,0,0-1.12.48A2.43,2.43,0,0,0,422.45,94Z"/><path class="cls-3" d="M427.88,97l.08-5.84,1.24,0L429.13,96l2.37,0v1Z"/><path class="cls-3" d="M437.38,94.13a2.87,2.87,0,0,1-.85,2.2,3.35,3.35,0,0,1-2.38.74l-1.65,0,.08-5.84,1.83,0a3.08,3.08,0,0,1,2.21.78A2.78,2.78,0,0,1,437.38,94.13Zm-1.29,0q0-1.88-1.64-1.9h-.66l0,3.8h.53Q436.07,96.06,436.09,94.15Z"/></svg>